<svg width="130" height="130" viewBox="0 0 130 130" fill="none" xmlns="http://www.w3.org/2000/svg">
<g clip-path="url(#clip0_7_54)">
<path d="M28.0918 119.315L19.7747 26.0292H111.166L102.84 119.301L65.4142 129.676L28.0918 119.315Z" fill="#264DE4"/>
<path d="M95.7118 113.362L102.827 33.6567H65.4702V121.746L95.7118 113.362Z" fill="#2965F1"/>
<path d="M38.8416 68.2552L39.867 79.6963H65.4702V68.2552H38.8416Z" fill="#EBEBEB"/>
<path d="M37.8211 56.5393H65.4701V45.098H65.4305H36.781L37.8211 56.5393Z" fill="#EBEBEB"/>
<path d="M65.4175 109.888L65.4701 109.873V97.9693L65.42 97.9826L52.6779 94.542L51.8633 85.4171H45.6716H40.3782L41.9811 103.381L65.4175 109.888Z" fill="#EBEBEB"/>
<path d="M41.283 0.677979H55.1402V6.47283H47.0778V12.2677H55.1402V18.0625H41.283V0.677979Z" fill="white"/>
<path d="M57.9116 0.677979H71.7689V5.71698H63.7065V6.72478H71.7689V18.3145H57.9116V13.0235H65.974V12.0157H57.9116V0.677979Z" fill="white"/>
<path d="M74.5403 0.677979H88.3975V5.71698H80.3351V6.72478H88.3975V18.3145H74.5403V13.0235H82.6027V12.0157H74.5403V0.677979Z" fill="white"/>
<path d="M94.0907 45.098H65.4304V56.5393H81.5522L80.5111 68.2553H65.4304V79.6963H79.519L78.1909 94.5347L65.4304 97.9788V109.882L88.8855 103.381L89.0575 101.448L91.7461 71.3275L92.0253 68.2553L94.0907 45.098Z" fill="white"/>
</g>
<defs>
<clipPath id="clip0_7_54">
<rect width="128.998" height="128.998" fill="white" transform="translate(0.374512 0.677979)"/>
</clipPath>
</defs>
</svg>
