<svg width="130" height="130" viewBox="0 0 130 130" fill="none" xmlns="http://www.w3.org/2000/svg">
<g clip-path="url(#clip0_7_101)">
<path d="M127.187 59.6115L70.8648 3.29257C67.6232 0.0489618 62.3625 0.0489618 59.1168 3.29257L47.4213 14.9881L62.2577 29.8244C65.7053 28.6594 69.6589 29.441 72.4072 32.1892C75.1686 34.9551 75.9446 38.9425 74.7514 42.4013L89.0495 56.6999C92.5088 55.5082 96.5002 56.2792 99.2631 59.0466C103.124 62.9065 103.124 69.1624 99.2631 73.0248C95.4007 76.8877 89.1448 76.8877 85.2803 73.0248C82.3759 70.1173 81.6583 65.8518 83.1287 62.2736L69.7945 48.9394L69.793 84.0295C70.7596 84.5074 71.6424 85.1387 72.4072 85.8989C76.2686 89.7588 76.2686 96.0153 72.4072 99.8807C68.5448 103.742 62.2859 103.742 58.429 99.8807C54.5676 96.0153 54.5676 89.7593 58.429 85.8995C59.3544 84.9736 60.4541 84.2404 61.6646 83.7423V48.3251C60.4523 47.8303 59.352 47.0966 58.429 46.1679C55.5034 43.2463 54.7999 38.9536 56.299 35.3613L41.6738 20.7346L3.05493 59.351C-0.190186 62.5976 -0.190186 67.8588 3.05493 71.1029L59.3779 127.423C62.6205 130.667 67.8802 130.667 71.1268 127.423L127.186 71.3644C130.43 68.1193 130.431 62.8551 127.187 59.6115Z" fill="#DE4C36"/>
</g>
<defs>
<clipPath id="clip0_7_101">
<rect width="128.998" height="128.998" fill="white" transform="translate(0.621094 0.859741)"/>
</clipPath>
</defs>
</svg>
