<svg width="130" height="130" viewBox="0 0 130 130" fill="none" xmlns="http://www.w3.org/2000/svg">
<g clip-path="url(#clip0_7_103)">
<path d="M65.1172 2.64502C29.6376 2.64502 0.867432 31.4102 0.867432 66.8948C0.867432 95.2825 19.2769 119.366 44.8055 127.862C48.0164 128.456 49.1955 126.468 49.1955 124.771C49.1955 123.239 49.1355 118.177 49.1083 112.809C31.2335 116.695 27.4618 105.228 27.4618 105.228C24.5392 97.8015 20.3281 95.8273 20.3281 95.8273C14.4989 91.8394 20.7675 91.921 20.7675 91.921C27.2194 92.3745 30.6167 98.5423 30.6167 98.5423C36.347 108.365 45.647 105.525 49.3134 103.884C49.8899 99.7305 51.5553 96.8965 53.3925 95.2921C39.122 93.667 24.1199 88.1579 24.1199 63.5393C24.1199 56.5251 26.6298 50.7932 30.7401 46.2939C30.073 44.6753 27.874 38.1408 31.3625 29.2908C31.3625 29.2908 36.7577 27.5639 49.0358 35.8767C54.1604 34.4527 59.657 33.7392 65.1172 33.715C70.5775 33.7392 76.0781 34.4527 81.2128 35.8767C93.4762 27.5639 98.8639 29.2908 98.8639 29.2908C102.361 38.1408 100.161 44.6753 99.4938 46.2939C103.613 50.7932 106.106 56.5246 106.106 63.5393C106.106 88.2163 91.0757 93.6504 76.7689 95.2407C79.0733 97.2346 81.1266 101.145 81.1266 107.139C81.1266 115.735 81.0521 122.654 81.0521 124.771C81.0521 126.481 82.2085 128.484 85.4657 127.853C110.98 119.348 129.367 95.273 129.367 66.8948C129.367 31.4102 100.6 2.64502 65.1172 2.64502Z" fill="white"/>
<path d="M24.9313 94.1704C24.7902 94.4894 24.2873 94.5851 23.8303 94.3665C23.3642 94.1568 23.1021 93.7215 23.2533 93.401C23.3919 93.0724 23.8948 92.9807 24.3599 93.2014C24.827 93.4106 25.093 93.85 24.9313 94.1704ZM28.0918 96.9903C27.7854 97.2745 27.1862 97.1424 26.7796 96.6935C26.3593 96.2455 26.2807 95.6469 26.5916 95.3581C26.9076 95.0744 27.4886 95.207 27.9098 95.6554C28.3301 96.1084 28.4117 96.7035 28.0913 96.9908M30.26 100.598C29.866 100.872 29.222 100.615 28.8244 100.044C28.4309 99.473 28.4309 98.7877 28.833 98.5131C29.2321 98.2384 29.866 98.4853 30.2691 99.0522C30.6622 99.6332 30.6622 100.319 30.2595 100.599M33.9264 104.777C33.5742 105.165 32.8244 105.061 32.2751 104.531C31.7138 104.013 31.5571 103.278 31.9103 102.889C32.2666 102.5 33.0209 102.61 33.5742 103.135C34.132 103.652 34.3018 104.393 33.9264 104.777ZM38.6651 106.188C38.5104 106.691 37.7878 106.92 37.0602 106.706C36.3335 106.486 35.8579 105.896 36.0045 105.388C36.1557 104.881 36.8813 104.643 37.6145 104.872C38.3401 105.091 38.8163 105.676 38.6651 106.188ZM44.0588 106.786C44.077 107.316 43.4597 107.756 42.6958 107.765C41.9273 107.782 41.306 107.353 41.298 106.832C41.298 106.297 41.9011 105.861 42.6691 105.849C43.433 105.834 44.0588 106.26 44.0588 106.786ZM49.3568 106.583C49.4486 107.1 48.9174 107.631 48.1591 107.772C47.4133 107.908 46.723 107.589 46.6277 107.077C46.535 106.547 47.0762 106.016 47.8205 105.879C48.5803 105.747 49.2601 106.057 49.3568 106.583Z" fill="white"/>
</g>
<defs>
<clipPath id="clip0_7_103">
<rect width="128.998" height="128.998" fill="white" transform="translate(0.867432 0.881348)"/>
</clipPath>
</defs>
</svg>
