<svg width="130" height="130" viewBox="0 0 130 130" fill="none" xmlns="http://www.w3.org/2000/svg">
<g clip-path="url(#clip0_7_48)">
<path d="M110.207 25.8866L101.902 118.923L64.5714 129.272L27.3434 118.937L19.0471 25.8866H110.207Z" fill="#E44D26"/>
<path d="M64.6272 121.361L94.7925 112.999L101.889 33.4948H64.6272V121.361Z" fill="#F16529"/>
<path d="M48.4827 56.3195H64.6272V44.9072H36.0106L36.2836 47.9689L39.0887 79.4181H64.6272V68.0058H49.5258L48.4827 56.3195ZM51.0548 85.1244H39.5986L41.1974 103.043L64.5747 109.533L64.6272 109.518V97.6447L64.5772 97.6579L51.8674 94.2261L51.0548 85.1244Z" fill="#EBEBEB"/>
<path d="M27.5286 0.599365H33.3281V6.32926H38.6335V0.599365H44.4334V17.9509H38.6339V12.1406H33.3285V17.9509H27.5289L27.5286 0.599365ZM52.0597 6.35355H46.9548V0.599365H62.9685V6.35355H57.8604V17.9509H52.0608V6.35355H52.0597ZM65.5099 0.599365H71.5571L75.2769 6.69624L78.9932 0.599365H85.0429V17.9509H79.267V9.35054L75.2769 15.5199H75.1769L71.1844 9.35054V17.9509H65.5099V0.599365ZM87.9292 0.599365H93.7305V12.2157H101.886V17.9509H87.9288L87.9292 0.599365Z" fill="white"/>
<path d="M64.5879 79.4181H78.6409L77.3159 94.219L64.5875 97.6544V109.527L87.9834 103.043L88.1549 101.115L90.8371 71.0703L91.1155 68.0058H64.5879V79.4181ZM64.5879 56.2916V56.3195H92.1539L92.3826 53.7545L92.9029 47.9689L93.1755 44.9072H64.5879V56.2916Z" fill="white"/>
</g>
<defs>
<clipPath id="clip0_7_48">
<rect width="128.998" height="128.998" fill="white" transform="translate(0.12793 0.599365)"/>
</clipPath>
</defs>
</svg>
