<svg width="130" height="130" viewBox="0 0 130 130" fill="none" xmlns="http://www.w3.org/2000/svg">
<g clip-path="url(#clip0_7_72)">
<path d="M0.0493164 0.702637H129.048V129.701H0.0493164V0.702637Z" fill="#F0DB4F"/>
<path d="M118.49 98.9352C117.546 93.0493 113.708 88.1076 102.341 83.4971C98.3923 81.6822 93.9901 80.3826 92.6781 77.3905C92.2121 75.6492 92.1508 74.6683 92.4451 73.6137C93.2912 70.1926 97.3745 69.1257 100.612 70.1067C102.696 70.8057 104.671 72.4121 105.86 74.9748C111.427 71.3698 111.415 71.3943 115.302 68.9174C113.879 66.7102 113.119 65.6923 112.187 64.7483C108.84 61.0083 104.278 59.0831 96.9821 59.2303C95.7191 59.3897 94.4439 59.5612 93.1808 59.7207C89.5391 60.6404 86.0687 62.5533 84.0332 65.1161C77.9266 72.0443 79.6679 84.1715 87.0988 89.1623C94.4193 94.6558 105.173 95.9065 106.547 101.044C107.883 107.335 101.924 109.37 96.0011 108.647C91.6358 107.74 89.208 105.52 86.5837 101.486C81.7526 104.282 81.7526 104.282 76.7864 107.139C77.9635 109.714 79.2019 110.879 81.1762 113.11C90.52 122.589 113.904 122.123 118.098 107.776C118.269 107.286 119.398 103.999 118.49 98.9352ZM70.1769 59.9904H58.1109C58.1109 70.4133 58.062 80.7626 58.062 91.1855C58.062 97.8193 58.4053 103.901 57.3262 105.765C55.5605 109.432 50.9867 108.978 48.9021 108.267C46.7807 107.224 45.7017 105.741 44.4509 103.644C44.1076 103.043 43.8501 102.577 43.7641 102.54C40.4902 104.539 37.2284 106.55 33.9543 108.549C35.5853 111.896 37.9886 114.802 41.0664 116.691C45.6648 119.45 51.8449 120.296 58.3072 118.812C62.5132 117.586 66.1426 115.048 68.0433 111.185C70.79 106.121 70.2014 99.9897 70.1769 93.2087C70.2382 82.1482 70.1769 71.0877 70.1769 59.9904Z" fill="#323330"/>
</g>
<defs>
<clipPath id="clip0_7_72">
<rect width="128.998" height="128.998" fill="white" transform="translate(0.0493164 0.702637)"/>
</clipPath>
</defs>
</svg>
