<svg width="130" height="130" viewBox="0 0 130 130" fill="none" xmlns="http://www.w3.org/2000/svg">
<g clip-path="url(#clip0_7_99)">
<path d="M9.01738 31.0774C-2.39092 47.4844 -0.979998 68.8255 7.74352 86.3048C7.94508 86.7241 8.1668 87.1353 8.38045 87.5464L8.78357 88.3325C8.8642 88.4857 8.95288 88.6349 9.03754 88.784C9.18669 89.0662 9.33988 89.3242 9.49306 89.5983L10.3275 91.0254L10.8032 91.8074L11.7707 93.3191L12.1819 93.9561C12.6374 94.6333 13.101 95.3105 13.5807 95.9717L13.8548 96.3425C14.2704 96.9137 14.695 97.4781 15.1287 98.0356L15.6124 98.6484L16.7895 100.1L17.241 100.64C17.7772 101.273 18.3295 101.902 18.8817 102.514C18.9382 102.575 18.9624 102.595 18.9785 102.619C19.5261 103.213 20.0825 103.799 20.6474 104.377L21.1836 104.917L22.5138 106.223L23.0581 106.747C23.6567 107.312 24.2655 107.865 24.8842 108.408L26.8837 110.101L27.569 110.649L28.9517 111.73L29.6894 112.294L31.2414 113.407L31.967 113.919C32.4629 114.261 32.9668 114.588 33.4747 114.914L34.1277 115.35C34.9058 115.844 35.692 116.325 36.486 116.793L37.139 117.196L38.9128 118.188C39.2353 118.361 39.5658 118.526 39.8924 118.692L41.1582 119.349L41.4524 119.49L41.9765 119.74L43.984 120.667L44.4073 120.856C45.1822 121.194 45.9631 121.518 46.7494 121.828L47.3138 122.054L49.5229 122.872L49.8051 122.969C50.6207 123.249 51.4405 123.518 52.2641 123.775L52.8607 123.952C53.667 124.206 54.5377 124.517 55.4004 124.67C110.604 134.736 126.632 91.493 126.632 91.493C113.168 109.037 89.2625 113.665 66.5668 108.513C65.7082 108.319 64.8737 108.053 64.0393 107.803L63.4104 107.614C62.5943 107.363 61.7826 107.098 60.9755 106.82L60.641 106.699C59.9225 106.444 59.2076 106.179 58.4964 105.905L57.8917 105.663C57.1125 105.356 56.3397 105.034 55.5737 104.695L55.1101 104.494L53.155 103.583L52.5906 103.312C52.0827 103.071 51.5828 102.801 51.0789 102.506L50.0711 101.982C49.4584 101.66 48.8618 101.313 48.2571 100.966L47.6444 100.624C46.8507 100.155 46.0646 99.6739 45.2861 99.1805C45.0724 99.0434 44.8628 98.8983 44.6492 98.7572L42.9722 97.6406C42.7868 97.5196 42.5691 97.3826 42.432 97.2616L40.8437 96.1127L40.1383 95.5806L38.7072 94.46L38.0703 93.948L36.2885 92.4444C36.2237 92.3877 36.1564 92.3339 36.0869 92.2831L34.2124 90.5779L33.6883 90.07L32.35 88.7397L31.8259 88.2156C31.2616 87.6392 30.7133 87.0587 30.2134 86.4661C30.1852 86.4379 30.157 86.4096 30.1328 86.3774C29.562 85.7509 29.003 85.1139 28.4558 84.4666L28.0527 83.9426L26.8434 82.451L26.4402 81.8987L25.0454 80.0444C12.3955 62.9037 7.87252 39.2083 17.9263 19.7779M44.4516 17.2584C36.1957 29.1384 36.6432 45.0737 43.081 57.6027C44.1598 59.7143 45.38 61.7507 46.7333 63.6978C47.9709 65.4716 49.3415 67.5799 50.9822 69.0029C51.5788 69.66 52.1996 70.2929 52.8365 70.9258L53.3203 71.4095C53.9364 72.0104 54.5668 72.5964 55.2109 73.1671C55.2391 73.1873 55.2593 73.2155 55.2915 73.2357C56.0252 73.8807 56.767 74.445 57.5208 75.082L58.0207 75.473C58.777 76.0563 59.5485 76.6195 60.3346 77.1621L60.4031 77.2104C60.7498 77.4523 61.1045 77.674 61.4593 77.9078C61.6286 78.0167 61.7898 78.1336 61.9592 78.2384C62.5227 78.6 63.0939 78.9494 63.6724 79.2865L63.9143 79.4276L65.43 80.2338C65.6074 80.3346 65.8331 80.4193 65.9702 80.516L67.0304 81.0643C67.0828 81.0925 67.1393 81.1126 67.1917 81.1368C67.9188 81.499 68.6554 81.8417 69.4008 82.1648L69.8845 82.3663C70.4849 82.6213 71.0897 82.8659 71.6985 83.1L72.4725 83.3822C73.0245 83.5829 73.5795 83.775 74.1374 83.9587L74.8913 84.2005C75.6854 84.4424 76.5037 84.7649 77.2979 84.8979C119.92 91.9606 129.76 59.0983 129.76 59.0983C120.891 71.8772 103.718 77.9643 85.3845 73.2075C84.5741 72.9942 83.769 72.7617 82.9698 72.5101C82.7279 72.4375 82.486 72.3569 82.2442 72.2762L80.5511 71.6958L79.7448 71.4136C79.1362 71.1788 78.5315 70.9342 77.9308 70.6799L77.439 70.4783C76.689 70.1523 75.9471 69.8082 75.2138 69.4464L74.0971 68.882L73.4521 68.5514C72.9778 68.2939 72.5074 68.0292 72.0412 67.7573L71.7026 67.5678C71.1258 67.23 70.556 66.8805 69.9933 66.5197C69.82 66.4109 69.6507 66.2899 69.4773 66.177L68.3688 65.4434C67.588 64.9022 66.8218 64.3404 66.071 63.7583L65.5469 63.3552C57.4845 57.0182 51.1636 48.3591 48.1402 38.5472C44.9717 28.3684 45.6529 16.9399 51.1434 7.66818M74.2503 6.93047C69.3887 14.1262 68.9049 22.9867 72.2831 30.896C75.8426 39.293 83.1391 45.8759 91.657 49.0364L92.7132 49.4395L93.1808 49.5846L94.7006 49.9877C118.235 54.5349 124.612 37.9103 126.317 35.4633C120.726 43.5136 111.329 45.4446 99.8 42.6469C98.889 42.4252 97.8893 42.0946 97.0105 41.7842C95.8826 41.3845 94.7765 40.9256 93.6968 40.4096C91.6477 39.4241 89.7018 38.2371 87.8878 36.8662C77.572 29.0416 71.1624 14.0697 77.8945 1.91162" fill="#0868AC"/>
</g>
<defs>
<clipPath id="clip0_7_99">
<rect width="128.998" height="128.998" fill="white" transform="translate(0.374512 0.0169678)"/>
</clipPath>
</defs>
</svg>
