<svg width="130" height="130" viewBox="0 0 130 130" fill="none" xmlns="http://www.w3.org/2000/svg">
<path d="M65.8098 75.9829C63.8708 76.8738 61.7463 78.0347 57.4934 80.3688C55.8809 81.2758 54.1959 82.1829 52.6277 83.0375C52.5189 82.9286 52.406 82.7916 52.2972 82.6787C43.8841 73.6891 28.3236 67.34 28.9847 55.2665C29.2306 50.8685 30.7423 39.3231 58.868 25.3026C82.0152 13.8943 100.434 17.0547 103.614 24.065C108.186 34.0584 93.742 52.6543 69.8369 55.3512C67.1912 55.8878 64.4587 55.823 61.8414 55.1615C59.2241 54.5 56.789 53.2588 54.7159 51.5296C53.4501 50.155 53.2606 50.0743 52.793 50.3484C52.0231 50.7516 52.5189 51.9972 52.793 52.7107C53.7049 54.3617 54.9385 55.8131 56.4209 56.9791C57.9034 58.1451 59.6045 59.002 61.4238 59.4993C70.8311 61.5326 80.6393 60.5611 89.4649 56.7218C103.953 51.1144 115.265 35.5257 111.951 22.4566C108.625 9.206 86.6309 4.83617 65.8219 12.2294C52.7901 16.621 40.7499 23.5341 30.3876 32.5749C18.9229 43.2979 17.1088 52.618 17.8506 56.5202C20.5192 70.3755 39.6191 79.3933 47.2783 86.073C46.8752 86.2947 46.5366 86.4761 46.2343 86.6494C42.4127 88.5481 27.8439 96.1631 24.2118 104.217C20.0879 113.344 24.8729 119.887 28.0334 120.765C32.7962 121.906 37.7964 121.531 42.3357 119.693C46.8751 117.854 50.7269 114.644 53.3534 110.51C55.5837 107.082 56.9533 103.167 57.3456 99.0958C57.738 95.0251 57.1414 90.9198 55.6068 87.1291C56.5122 86.4069 57.4779 85.7636 58.4931 85.2063C60.4442 84.0533 62.3026 82.9165 63.9514 82.0377C69.5966 79.3935 75.7572 78.032 81.991 78.0509C95.0763 79.5908 97.6603 87.754 97.1645 91.1926C96.9325 92.4126 96.4419 93.5687 95.7257 94.5833C95.0095 95.5978 94.0843 96.4471 93.0123 97.0741C92.1053 97.6506 91.803 97.8441 91.8836 98.2553C91.9924 98.8599 92.4318 98.8317 93.2018 98.7229C95.1678 98.1015 96.8998 96.9 98.1704 95.2762C99.441 93.6524 100.191 91.6822 100.321 89.6245C100.724 81.562 93.0365 72.7176 79.4272 72.7982C75.3521 72.8052 71.3178 73.6091 67.5513 75.1645C66.9466 75.4145 66.3594 75.6832 65.7896 75.9708L65.8098 75.9829ZM46.3592 107.583C42.0136 112.312 35.9668 114.098 33.3546 112.586C30.5327 110.974 31.6494 103.98 36.9826 98.9768C40.1413 96.1308 43.5554 93.5818 47.1816 91.3619C47.8145 90.9588 48.7497 90.4267 49.8744 89.7494C50.0679 89.6406 50.1768 89.5841 50.1768 89.5841L50.8379 89.181C51.7891 92.3701 51.8756 95.7547 51.0887 98.9883C50.3017 102.222 48.6695 105.188 46.3592 107.583Z" fill="#CD6799"/>
</svg>
