<svg width="130" height="129" viewBox="0 0 130 129" fill="none" xmlns="http://www.w3.org/2000/svg">
<g clip-path="url(#clip0_7_68)">
<path d="M65.3706 25.7941C48.1704 25.7941 37.4243 34.3906 33.121 51.5907C39.5689 42.9932 47.0961 39.7692 55.6937 41.9189C60.6027 43.1423 64.1108 46.7019 67.9959 50.6464C74.3188 57.0631 81.6375 64.4916 97.6202 64.4916C114.819 64.4916 125.566 55.894 129.87 38.6899C123.421 47.2925 115.895 50.5164 107.296 48.3668C102.388 47.1423 98.884 43.5838 94.9939 39.6392C88.6749 33.2226 81.3583 25.7941 65.3706 25.7941ZM33.121 64.4916C15.9218 64.4916 5.17465 73.0891 0.871338 90.2933C7.31924 81.6907 14.8455 78.4668 23.4441 80.6164C28.353 81.8409 31.8612 85.3994 35.7463 89.344C42.0692 95.7606 49.3879 103.189 65.3706 103.189C82.5697 103.189 93.3169 94.5926 97.6202 77.3924C91.1713 85.99 83.645 89.2139 75.0465 87.0643C70.1385 85.8408 66.6343 82.2813 62.7442 78.3368C56.4253 71.9201 49.1087 64.4916 33.121 64.4916Z" fill="#38BDF8"/>
</g>
<defs>
<clipPath id="clip0_7_68">
<rect width="128.998" height="128.998" fill="white" transform="translate(0.867432 -0.00769043)"/>
</clipPath>
</defs>
</svg>
