<svg xmlns="http://www.w3.org/2000/svg" xmlns:xlink="http://www.w3.org/1999/xlink" width="500" zoomAndPan="magnify" viewBox="0 0 375 374.999991" height="500" preserveAspectRatio="xMidYMid meet" version="1.0"><defs><g/></defs><g fill="#ffffff" fill-opacity="1"><g transform="translate(93.829035, 276.029367)"><g><path d="M 5.265625 -30.6875 C 5.265625 -12.453125 16.828125 3.5 37.171875 3.5 C 72.0625 3.5 92.578125 -27.359375 92.578125 -69.96875 C 92.578125 -78.375 92.234375 -85.390625 91.53125 -91 L 113.265625 -33.671875 C 119.9375 -15.953125 120.8125 -1.75 96.09375 -1.75 L 96.09375 0 L 153.59375 0 L 153.59375 -1.75 C 142.90625 -1.75 137.296875 -11.390625 129.578125 -30.6875 L 73.46875 -178.84375 L 71.71875 -178.84375 C 60.671875 -149.75 54.1875 -132.390625 43.484375 -104.15625 C 41.734375 -99.59375 42.609375 -94.859375 47.515625 -94.859375 C 57.515625 -94.859375 62.765625 -113.265625 71.1875 -113.265625 C 73.46875 -113.265625 75.390625 -111.875 75.390625 -108.53125 C 75.390625 -90.296875 5.265625 -73.8125 5.265625 -30.6875 Z M 20.171875 -34.015625 C 20.171875 -77.328125 77.328125 -84.6875 77.328125 -108.1875 C 77.328125 -112.75 74.875 -115.03125 71.546875 -115.03125 C 62.25 -115.03125 55.765625 -96.609375 47.6875 -96.609375 C 44.890625 -96.609375 43.484375 -98.71875 45.765625 -104.859375 L 65.921875 -158.515625 L 87.140625 -102.578125 C 90.296875 -92.234375 90.828125 -82.59375 90.828125 -69.609375 C 90.828125 -40.859375 76.96875 -4.90625 47.6875 -4.90625 C 30.515625 -4.90625 20.171875 -17.53125 20.171875 -34.015625 Z M 20.171875 -34.015625 "/></g></g></g><g fill="#ffffff" fill-opacity="1"><g transform="translate(146.330313, 277.791486)"><g><path d="M -0.515625 -6.96875 C -0.125 -7.75 -0.265625 -9.640625 -0.90625 -11.53125 C -1.046875 -11.84375 -1.171875 -12.3125 -1.171875 -12.5 C -1.296875 -13.40625 -4.03125 -20.046875 -4.5625 -20.765625 C -4.6875 -20.96875 -5.078125 -21.546875 -5.40625 -22.140625 C -6.0625 -23.5 -5.984375 -23.375 -6.578125 -24.15625 L -9.109375 -27.734375 L -10.03125 -28.96875 L -10.546875 -29.75 L -16.40625 -37.765625 L -19.015625 -41.46875 C -19.40625 -42.125 -19.921875 -42.71875 -20.046875 -42.71875 C -20.25 -42.71875 -20.640625 -43.296875 -20.578125 -43.421875 C -20.578125 -43.5 -20.578125 -43.625 -20.640625 -43.75 L -23.375 -47.46875 C -23.5 -47.71875 -23.703125 -48.046875 -23.890625 -48.25 C -24.15625 -48.640625 -24.21875 -48.828125 -24.34375 -50.453125 L -24.484375 -52.734375 C -24.609375 -54.4375 -24.609375 -54.953125 -24.484375 -54.890625 L -23.3125 -53.84375 L -21.8125 -52.40625 L -18.625 -49.671875 L -17.84375 -49.03125 C -17.25 -48.5 -15.6875 -47.203125 -15.296875 -46.75 C -14.96875 -46.484375 -14.390625 -45.96875 -13.9375 -45.640625 L -13.015625 -44.859375 C -12.953125 -44.734375 -12.703125 -44.53125 -12.4375 -44.34375 L -11.71875 -43.8125 C -11.328125 -43.421875 -10.28125 -42.90625 -9.890625 -42.90625 C -9.703125 -42.90625 -9.578125 -42.96875 -9.5 -43.234375 L -9.375 -43.5625 C -9.375 -43.625 -9.890625 -43.890625 -10.09375 -43.890625 C -10.28125 -43.890625 -11.59375 -44.59375 -11.984375 -44.984375 L -14.1875 -46.8125 L -16.734375 -49.03125 L -19.859375 -51.703125 L -21.546875 -53.1875 L -22.65625 -54.109375 L -23.765625 -55.21875 L -24.671875 -56.0625 L -24.734375 -56.84375 C -24.8125 -57.296875 -24.875 -58.65625 -24.875 -59.90625 C -24.9375 -62.765625 -25 -64.328125 -25.0625 -66.015625 C -25.125 -67.328125 -25.125 -67.328125 -24.9375 -67.578125 C -24.734375 -67.78125 -24.671875 -67.90625 -24.734375 -68.296875 C -24.875 -69.40625 -25.515625 -70 -25.90625 -69.34375 C -26.046875 -69.140625 -26.109375 -68.890625 -26.046875 -67.71875 C -25.90625 -66.15625 -25.90625 -65.953125 -25.78125 -64.71875 C -25.71875 -64.203125 -25.65625 -62.640625 -25.59375 -61.203125 L -25.515625 -57.75 C -25.453125 -57.296875 -25.515625 -56.90625 -25.515625 -56.84375 L -26.5 -57.6875 L -29.75 -60.9375 C -32.875 -63.875 -36.078125 -67.0625 -36.921875 -68.046875 L -37.828125 -69.015625 L -40.109375 -71.625 C -41.015625 -72.65625 -42.578125 -74.421875 -42.84375 -74.8125 C -43.234375 -75.390625 -44.671875 -76.765625 -44.984375 -76.890625 C -45.375 -77.09375 -45.90625 -77.03125 -46.09375 -76.890625 C -46.234375 -76.703125 -46.234375 -76.375 -46.03125 -76.171875 C -45.90625 -76.046875 -45.703125 -75.921875 -45.515625 -75.859375 C -45.3125 -75.71875 -45.125 -75.59375 -44.984375 -75.46875 L -44.53125 -74.8125 C -44.34375 -74.609375 -43.75 -73.96875 -43.296875 -73.3125 L -41.609375 -70.96875 L -41.21875 -70.3125 L -40.828125 -69.859375 C -40.765625 -69.734375 -40.6875 -69.609375 -40.6875 -69.53125 C -40.6875 -69.46875 -40.625 -69.40625 -40.5625 -69.40625 C -40.5 -69.40625 -40.5 -69.34375 -40.5 -69.34375 C -40.5625 -69.28125 -40.5 -69.21875 -40.4375 -69.140625 C -40.375 -69.140625 -39.984375 -68.6875 -39.59375 -68.171875 L -38.671875 -66.875 L -37.25 -65.171875 L -36.921875 -64.65625 C -36.859375 -64.53125 -36.71875 -64.265625 -36.65625 -64.203125 L -36.078125 -63.546875 C -35.421875 -62.5625 -34.25 -61.140625 -33.984375 -60.875 L -33.734375 -60.421875 L -33.34375 -59.828125 L -32.484375 -58.734375 L -31.90625 -57.953125 L -31.515625 -57.484375 L -30.203125 -55.734375 C -29.8125 -55.28125 -29.5 -54.828125 -29.5 -54.828125 C -29.421875 -54.828125 -29.421875 -54.75 -29.421875 -54.6875 C -29.421875 -54.625 -28.84375 -53.84375 -28.328125 -53.265625 C -28.1875 -53.0625 -28.0625 -52.875 -28.0625 -52.796875 C -28.0625 -52.734375 -27.9375 -52.609375 -27.859375 -52.546875 L -27.21875 -51.703125 C -26.953125 -51.375 -26.6875 -51.046875 -26.625 -51.046875 C -26.4375 -51.046875 -26.4375 -51.171875 -26.625 -51.4375 C -26.6875 -51.5625 -26.765625 -51.703125 -26.765625 -51.828125 C -26.765625 -51.890625 -26.890625 -52.09375 -27.015625 -52.21875 C -27.546875 -52.875 -27.9375 -53.390625 -27.9375 -53.453125 C -27.9375 -53.515625 -28 -53.578125 -28.0625 -53.578125 C -28.125 -53.578125 -28.453125 -53.84375 -28.71875 -54.234375 C -28.96875 -54.625 -29.421875 -55.140625 -29.625 -55.34375 C -29.8125 -55.609375 -30.015625 -55.921875 -30.015625 -56.0625 C -30.015625 -56.1875 -30.203125 -56.453125 -30.46875 -56.78125 C -30.796875 -57.03125 -31.125 -57.484375 -31.3125 -57.6875 L -32.03125 -58.65625 C -33.078125 -60.03125 -33.265625 -60.21875 -33.265625 -60.359375 C -33.265625 -60.421875 -33.40625 -60.484375 -33.53125 -60.609375 C -33.65625 -60.6875 -33.796875 -60.8125 -33.796875 -60.875 C -33.796875 -60.9375 -33.921875 -61.203125 -34.1875 -61.46875 C -34.375 -61.65625 -34.578125 -61.984375 -34.703125 -62.109375 C -34.765625 -62.3125 -34.90625 -62.4375 -34.90625 -62.4375 C -34.96875 -62.4375 -35.03125 -62.5 -35.09375 -62.640625 C -35.09375 -62.765625 -35.21875 -62.953125 -35.296875 -63.09375 C -35.609375 -63.421875 -36.328125 -64.453125 -36.390625 -64.65625 C -36.46875 -64.71875 -36.53125 -64.84375 -36.59375 -64.84375 C -36.65625 -64.84375 -36.71875 -64.921875 -36.78125 -65.046875 C -36.859375 -65.3125 -37.3125 -66.09375 -37.5 -66.21875 L -37.890625 -66.796875 C -38.09375 -67.0625 -38.34375 -67.328125 -38.421875 -67.453125 C -38.546875 -67.515625 -38.671875 -67.71875 -38.8125 -67.96875 L -41.015625 -71.171875 C -41.9375 -72.34375 -41.34375 -71.8125 -39.265625 -69.609375 C -38.21875 -68.4375 -36.46875 -66.546875 -35.15625 -65.234375 C -34.703125 -64.78125 -34.3125 -64.328125 -34.3125 -64.265625 L -34.25 -64.203125 C -34.1875 -64.203125 -33.59375 -63.671875 -32.953125 -63.03125 C -26.890625 -57.09375 -25.453125 -55.671875 -25.390625 -55.53125 L -25.0625 -51.4375 C -25.0625 -50.59375 -25 -49.75 -24.9375 -49.671875 C -24.875 -49.421875 -25.0625 -49.484375 -25.328125 -49.8125 C -25.90625 -50.53125 -26.171875 -50.84375 -26.296875 -50.84375 C -26.5 -50.84375 -26.375 -50.59375 -25.84375 -50 L -25 -48.890625 C -24.671875 -48.4375 -24.609375 -48.3125 -24.734375 -47.984375 C -24.734375 -47.859375 -24.8125 -47.65625 -24.734375 -47.59375 C -24.671875 -47.46875 -24.546875 -46.546875 -24.21875 -44.140625 C -24.15625 -43.359375 -24.03125 -42.390625 -23.890625 -42 L -23.640625 -40.6875 C -23.5625 -39.984375 -22.859375 -37.046875 -22.71875 -36.921875 L -22.390625 -36.921875 C -21.9375 -37.046875 -21.9375 -37.5 -22.265625 -38.34375 C -22.65625 -39.203125 -22.984375 -40.5 -23.375 -43.03125 L -23.703125 -45.453125 C -23.828125 -46.359375 -23.953125 -46.9375 -23.953125 -47.265625 L -23.109375 -46.15625 C -22.78125 -45.765625 -22.328125 -45.125 -22.078125 -44.734375 L -21.21875 -43.5625 C -20.96875 -43.296875 -20.828125 -43.03125 -20.828125 -42.96875 C -20.828125 -42.90625 -20.703125 -42.71875 -20.515625 -42.515625 C -20.1875 -42.0625 -19.015625 -40.375 -17.96875 -38.9375 L -17 -37.5 C -16.859375 -37.3125 -16.734375 -37.109375 -16.734375 -37.046875 C -16.734375 -37.046875 -16.671875 -36.921875 -16.53125 -36.78125 C -16.40625 -36.65625 -15.828125 -35.8125 -15.171875 -34.96875 C -13.796875 -32.953125 -13.40625 -32.421875 -12.375 -31.0625 C -11.921875 -30.46875 -11.453125 -29.8125 -11.390625 -29.5625 C -11.265625 -29.296875 -11.203125 -29.109375 -11.140625 -29.109375 C -11.0625 -29.109375 -10.75 -28.71875 -10.359375 -28.328125 L -9.4375 -27.15625 C -9.3125 -27.015625 -9.1875 -26.828125 -9.1875 -26.6875 C -9.1875 -26.625 -9.046875 -26.375 -8.859375 -26.171875 C -8.65625 -25.984375 -8.46875 -25.71875 -8.40625 -25.515625 C -8.40625 -25.390625 -8.265625 -25.0625 -8.078125 -24.9375 L -7.6875 -24.28125 L -7.09375 -23.640625 C -6.84375 -23.4375 -6.703125 -23.3125 -6.703125 -23.25 C -6.765625 -23.171875 -6.578125 -22.78125 -6.25 -22.265625 C -5.984375 -21.8125 -5.734375 -21.359375 -5.734375 -21.296875 C -5.796875 -21.296875 -5.46875 -20.640625 -5.015625 -19.859375 C -4.625 -19.078125 -4.234375 -18.296875 -4.171875 -18.03125 L -3.71875 -17 L -3.390625 -16.28125 L -3.125 -15.5 C -2.46875 -13.734375 -2.40625 -13.34375 -2.21875 -12.5625 L -1.765625 -11 C -1.625 -10.484375 -1.5 -9.828125 -1.5625 -9.109375 C -1.5625 -8.078125 -1.5625 -8.078125 -1.890625 -8.203125 C -2.609375 -8.46875 -2.734375 -8.46875 -2.9375 -8.265625 C -3.0625 -8.078125 -3.125 -7.9375 -3 -7.6875 C -2.859375 -7.09375 -2.34375 -6.765625 -1.5 -6.640625 L -0.78125 -6.515625 Z M -0.515625 -6.96875 "/></g></g></g><g fill="#ffffff" fill-opacity="1"><g transform="translate(146.330313, 220.299909)"><g><path d="M -13.40625 2.859375 C -13.40625 2.796875 -13.734375 2.734375 -14.453125 2.609375 C -15.625 2.46875 -16.46875 2.078125 -17.90625 1.109375 C -19.203125 0.265625 -22.46875 -2.28125 -22.46875 -2.40625 C -22.53125 -2.46875 -22.59375 -2.546875 -22.65625 -2.546875 C -22.78125 -2.671875 -22.859375 -2.796875 -22.921875 -2.9375 L -23.703125 -4.109375 C -24.03125 -4.6875 -24.09375 -4.8125 -24.484375 -5.34375 L -24.875 -5.921875 C -24.875 -5.984375 -25.265625 -6.640625 -25.59375 -7.03125 C -25.90625 -7.484375 -26.6875 -8.71875 -26.828125 -8.921875 L -27.28125 -9.578125 L -27.796875 -10.28125 L -28.453125 -11.140625 L -29.75 -12.765625 C -30.46875 -13.734375 -32.484375 -16.015625 -33.078125 -16.140625 C -33.59375 -16.28125 -33.859375 -15.890625 -33.59375 -15.171875 C -33.40625 -14.453125 -32.8125 -13.484375 -32.421875 -12.953125 C -32.03125 -12.375 -31.640625 -11.59375 -31.1875 -11 C -29.953125 -9.3125 -28.578125 -7.546875 -27.078125 -5.859375 C -26.4375 -5.140625 -25 -3.640625 -24.734375 -3.328125 L -23.4375 -2.015625 C -23.375 -1.890625 -23.375 -1.828125 -23.375 -1.828125 C -23.4375 -1.765625 -23.375 -1.6875 -23.375 -1.6875 C -23.25 -1.6875 -23.046875 -0.984375 -23.109375 -0.84375 C -23.171875 -0.78125 -23.109375 -0.71875 -23.046875 -0.71875 C -22.921875 -0.71875 -22.59375 -1.046875 -22.59375 -1.171875 L -22.59375 -1.296875 C -22.390625 -1.109375 -22.265625 -1.046875 -22.203125 -1.046875 L -21.875 -0.78125 C -21.6875 -0.59375 -21.546875 -0.453125 -21.484375 -0.453125 C -21.421875 -0.453125 -21.359375 -0.453125 -21.359375 -0.390625 C -21.359375 -0.328125 -21.09375 -0.125 -20.765625 0.125 L -20.125 0.65625 C -20.125 0.71875 -19.984375 0.71875 -19.921875 0.71875 C -19.796875 0.78125 -19.734375 0.84375 -19.734375 0.90625 L -19.53125 1.109375 C -19.40625 1.109375 -19.40625 1.109375 -19.40625 1.171875 C -19.40625 1.234375 -19.34375 1.296875 -19.265625 1.296875 C -19.140625 1.296875 -19.078125 1.375 -19.078125 1.4375 C -19.140625 1.4375 -19.078125 1.5 -19.015625 1.5 C -18.875 1.5 -18.296875 1.890625 -17.84375 2.21875 C -17.453125 2.46875 -17.25 2.546875 -17.125 2.609375 C -17 2.609375 -16.859375 2.671875 -16.671875 2.734375 C -16.21875 3.0625 -15.046875 3.328125 -14.328125 3.1875 C -13.609375 3.125 -13.484375 3.0625 -13.40625 2.859375 Z M -24.421875 -4.234375 C -24.34375 -4.03125 -24.421875 -4.171875 -25 -4.6875 C -25.65625 -5.28125 -28.515625 -8.59375 -28.515625 -8.71875 L -30.40625 -11.0625 L -31.0625 -12.046875 L -31.515625 -12.5625 L -31.765625 -12.953125 L -32.421875 -14 L -32.6875 -14.453125 L -32.875 -14.78125 L -32.953125 -14.90625 C -33.015625 -14.96875 -33.015625 -15.046875 -33.015625 -15.171875 C -33.078125 -15.234375 -33.015625 -15.296875 -32.875 -15.296875 C -32.875 -15.296875 -32.8125 -15.296875 -32.75 -15.234375 L -32.625 -15.109375 L -32.5625 -15.109375 L -32.421875 -14.90625 L -32.359375 -14.84375 L -32.171875 -14.71875 L -31.96875 -14.515625 L -31.125 -13.609375 L -30.140625 -12.375 C -29.6875 -11.84375 -29.359375 -11.453125 -29.359375 -11.390625 L -29.109375 -11 C -28.640625 -10.484375 -27.609375 -8.984375 -27.40625 -8.71875 C -27.28125 -8.46875 -26.765625 -7.6875 -26.5625 -7.421875 C -26.234375 -7.03125 -25.453125 -5.984375 -25.328125 -5.734375 L -25.125 -5.46875 Z M -24.421875 -4.234375 "/></g></g></g><g fill="#ffffff" fill-opacity="1"><g transform="translate(146.330313, 214.570288)"><g><path d="M -17.78125 -1.4375 C -17.703125 -1.6875 -17.703125 -1.953125 -17.78125 -2.21875 L -17.78125 -2.40625 C -17.78125 -2.40625 -18.03125 -3.578125 -18.625 -4.8125 L -20.3125 -8.53125 C -20.375 -8.65625 -20.578125 -8.65625 -20.640625 -8.53125 L -20.703125 -8.46875 L -20.703125 -8.265625 L -20.640625 -8.140625 C -19.40625 -5.28125 -18.625 -3.328125 -18.421875 -2.46875 C -18.421875 -2.46875 -18.171875 -1.625 -18.421875 -1.5625 C -19.015625 -1.296875 -19.734375 -1.765625 -20.125 -2.078125 C -20.4375 -2.34375 -21.21875 -3 -21.21875 -2.21875 C -21.21875 -2.078125 -21.296875 -1.890625 -21.359375 -1.890625 C -21.609375 -1.828125 -21.546875 -1.625 -20.96875 -0.515625 C -20.4375 0.453125 -19.65625 1.6875 -19.015625 2.46875 C -18.75 2.796875 -18.625 2.9375 -18.421875 2.9375 C -18.09375 2.9375 -18.03125 2.734375 -18.03125 2.34375 C -18.03125 2.015625 -18.6875 0.71875 -19.078125 0.203125 C -19.53125 -0.328125 -19.984375 -1.171875 -19.921875 -1.171875 L -19.46875 -0.984375 C -19.265625 -0.84375 -19.015625 -0.78125 -18.8125 -0.78125 C -18.5625 -0.71875 -18.359375 -0.71875 -18.09375 -0.90625 C -17.90625 -1.046875 -17.78125 -1.171875 -17.78125 -1.4375 Z M -18.625 2.21875 L -18.875 1.828125 C -19.265625 1.4375 -19.984375 0.390625 -20.375 -0.453125 C -20.765625 -1.109375 -20.765625 -1.234375 -20.640625 -1.234375 C -20.578125 -1.234375 -20.4375 -1.046875 -20.375 -0.84375 C -20.125 -0.328125 -19.921875 -0.0625 -19.796875 0.0625 C -19.65625 0.203125 -19.015625 1.296875 -18.75 1.828125 Z M -18.625 2.21875 "/></g></g></g><g fill="#ffffff" fill-opacity="1"><g transform="translate(146.330313, 206.236289)"><g><path d="M -17.515625 -0.71875 C -17.390625 -1.109375 -17.578125 -2.671875 -18.5625 -4.6875 C -19.015625 -5.53125 -19.34375 -6.515625 -19.921875 -7.75 C -20.640625 -9.25 -20.578125 -8.078125 -20.25 -7.421875 C -19.53125 -5.859375 -19.015625 -4.5625 -18.6875 -3.71875 C -18.234375 -2.734375 -17.96875 -1.109375 -18.09375 -1.046875 C -18.75 -0.59375 -19.59375 -1.5 -19.734375 -1.5625 L -19.984375 -1.625 L -19.984375 -1.890625 C -19.796875 -2.46875 -19.859375 -2.9375 -20.125 -3.515625 C -20.25 -3.78125 -20.375 -4.109375 -20.4375 -4.109375 L -20.640625 -4.421875 C -20.703125 -4.5625 -20.90625 -4.75 -21.03125 -4.890625 C -21.296875 -5.078125 -21.421875 -5.078125 -21.6875 -5.015625 L -22.078125 -4.75 C -22.265625 -4.296875 -22.078125 -3.1875 -21.421875 -1.625 L -21.15625 -1.046875 C -21.296875 -0.984375 -22.71875 -2.40625 -23.5 -3.25 L -24.421875 -4.234375 C -24.609375 -4.296875 -25.203125 -5.140625 -25.328125 -5.53125 L -25.84375 -6.84375 L -26.625 -8.859375 C -26.6875 -9.109375 -27.015625 -9.890625 -27.34375 -10.546875 L -28.0625 -12.234375 C -28.578125 -13.34375 -29.890625 -15.75 -30.078125 -16.015625 C -30.140625 -16.078125 -30.203125 -16.21875 -30.28125 -16.40625 C -30.34375 -16.609375 -30.46875 -16.796875 -30.53125 -16.859375 L -31.1875 -17.78125 C -31.453125 -18.234375 -31.765625 -18.75 -31.96875 -18.953125 L -32.234375 -19.34375 C -32.234375 -19.40625 -33.078125 -20.375 -33.734375 -21.15625 C -34.375 -21.875 -35.15625 -22.46875 -35.484375 -22.53125 C -35.9375 -22.53125 -36.203125 -22.390625 -36.265625 -22 C -36.328125 -21.359375 -36.265625 -20.90625 -36 -20.375 L -35.75 -19.734375 L -35.6875 -19.59375 L -35.296875 -18.75 C -34.828125 -17.703125 -34.1875 -16.53125 -33.53125 -15.359375 L -32.953125 -14.515625 C -32.8125 -14.1875 -32.5625 -13.875 -32.484375 -13.734375 C -32.359375 -13.671875 -32.359375 -13.546875 -32.421875 -13.546875 L -32.359375 -13.484375 C -32.296875 -13.484375 -32.09375 -13.21875 -31.96875 -12.953125 C -31.0625 -11.53125 -29.8125 -9.828125 -28.1875 -7.875 L -26.890625 -6.1875 C -26.6875 -5.921875 -26.4375 -5.671875 -26.296875 -5.53125 C -26.109375 -5.40625 -25.90625 -5.140625 -25.78125 -4.8125 L -25.59375 -4.421875 L -25.515625 -4.234375 L -24.9375 -2.796875 L -24.21875 -0.78125 C -24.09375 -0.515625 -24.03125 -0.328125 -23.953125 -0.265625 C -23.703125 -0.125 -23.5625 -0.203125 -23.5625 -0.453125 C -23.5625 -0.78125 -23.953125 -2.078125 -24.15625 -2.34375 C -24.28125 -2.546875 -24.484375 -2.9375 -24.546875 -3.328125 L -24.484375 -3.125 C -24.484375 -3.25 -24.421875 -3.1875 -24.28125 -3.0625 L -23.640625 -2.40625 C -23.5 -2.28125 -21.9375 -0.78125 -21.6875 -0.453125 C -21.484375 -0.328125 -21.296875 -0.203125 -21.15625 -0.0625 C -20.25 0.65625 -19.59375 1.234375 -19.203125 1.890625 C -18.8125 2.46875 -18.484375 2.671875 -18.03125 2.609375 C -17.78125 2.546875 -17.703125 2.546875 -17.78125 2.28125 C -17.78125 2.078125 -17.96875 1.828125 -18.296875 1.5625 C -18.625 1.296875 -18.953125 0.90625 -19.140625 0.65625 L -19.734375 0 C -19.796875 -0.0625 -19.921875 -0.328125 -19.984375 -0.453125 C -20.046875 -0.59375 -20.125 -0.78125 -20.25 -0.84375 C -20.046875 -0.84375 -19.859375 -0.78125 -19.734375 -0.71875 C -19.078125 -0.453125 -18.8125 -0.390625 -18.5625 -0.328125 C -18.03125 -0.203125 -17.640625 -0.390625 -17.515625 -0.71875 Z M -26.375 -6.578125 C -26.375 -6.375 -26.5625 -6.515625 -26.6875 -6.765625 L -27.21875 -7.421875 L -28.390625 -8.71875 C -28.515625 -8.984375 -28.71875 -9.25 -28.84375 -9.3125 C -28.96875 -9.4375 -29.171875 -9.703125 -29.359375 -9.96875 L -30.078125 -10.9375 C -30.34375 -11.265625 -30.53125 -11.53125 -30.53125 -11.59375 C -30.59375 -11.65625 -30.796875 -11.984375 -30.984375 -12.3125 C -32.75 -14.96875 -34.578125 -18.296875 -35.15625 -19.921875 L -35.484375 -20.703125 C -35.609375 -21.09375 -35.609375 -21.484375 -35.421875 -21.609375 C -35.21875 -21.8125 -34.515625 -21.359375 -33.921875 -20.578125 L -32.8125 -19.203125 L -32.5625 -18.953125 C -32.5625 -18.8125 -31.90625 -17.84375 -31.765625 -17.640625 C -31.703125 -17.578125 -31.453125 -17.25 -31.25 -16.859375 L -30.671875 -15.890625 C -30.34375 -15.359375 -29.953125 -14.71875 -29.5 -13.875 L -28.90625 -12.765625 L -28.640625 -12.234375 C -28.515625 -11.84375 -27.546875 -9.703125 -27.46875 -9.640625 C -27.46875 -9.640625 -27.34375 -9.3125 -27.28125 -9.046875 L -27.078125 -8.40625 L -26.953125 -8.140625 L -26.625 -7.296875 Z M -20.640625 -1.953125 C -20.703125 -1.765625 -20.765625 -1.765625 -20.765625 -1.890625 C -20.765625 -2.015625 -20.90625 -2.21875 -20.96875 -2.34375 C -21.296875 -2.734375 -21.546875 -3.640625 -21.546875 -4.03125 C -21.484375 -4.359375 -21.296875 -4.296875 -21.15625 -3.96875 C -21.09375 -3.84375 -20.96875 -3.640625 -20.828125 -3.578125 C -20.578125 -3.390625 -20.4375 -2.34375 -20.640625 -1.953125 Z M -20.640625 -1.953125 "/></g></g></g><g fill="#ffffff" fill-opacity="1"><g transform="translate(146.330313, 198.032512)"><g><path d="M -15.828125 1.5 L -15.890625 1.171875 C -16.078125 0.65625 -16.921875 -0.59375 -18.09375 -2.015625 C -19.015625 -3.0625 -20.125 -3.640625 -20.703125 -3.328125 C -20.90625 -3.25 -21.03125 -3.125 -21.09375 -2.859375 C -21.15625 -2.40625 -20.90625 -1.765625 -20.515625 -0.90625 L -20.125 -0.328125 C -20.125 -0.265625 -20.1875 -0.328125 -20.3125 -0.453125 L -21.875 -1.828125 C -22.46875 -2.28125 -22.859375 -2.671875 -23.171875 -3 L -23.375 -3.25 L -23.5 -3.453125 L -23.703125 -3.96875 L -23.765625 -4.171875 L -23.828125 -4.234375 L -24.609375 -5.734375 L -25.265625 -7.09375 L -25.78125 -8.140625 C -26.046875 -8.59375 -28.640625 -13.796875 -29.03125 -14.453125 L -29.234375 -14.84375 C -29.296875 -14.96875 -29.421875 -15.109375 -29.5 -15.109375 C -29.5625 -15.109375 -29.625 -15.234375 -29.6875 -15.359375 L -29.953125 -15.890625 L -30.59375 -16.796875 C -30.796875 -17.125 -31.25 -17.703125 -31.578125 -18.09375 L -32.234375 -18.953125 C -32.421875 -19.265625 -33.265625 -19.984375 -33.734375 -20.25 C -34.1875 -20.515625 -34.578125 -20.515625 -34.828125 -20.25 C -35.03125 -20.125 -34.96875 -19.53125 -34.828125 -18.953125 L -34.640625 -18.234375 C -34.578125 -17.90625 -34.375 -17.3125 -34.25 -17.0625 L -34.125 -16.53125 C -33.65625 -15.296875 -32.875 -13.609375 -32.03125 -12.4375 L -31.640625 -11.71875 L -31.25 -11.203125 L -30.53125 -10.21875 L -29.296875 -8.59375 L -27.671875 -6.765625 L -26.4375 -5.46875 L -24.09375 -3.125 L -23.5 -1.625 L -23.109375 -0.71875 L -22.71875 0.328125 C -22.59375 0.59375 -22.46875 0.78125 -22.390625 0.84375 C -22.203125 0.984375 -22.078125 0.90625 -22.078125 0.65625 C -22.078125 0.328125 -22.53125 -0.90625 -22.71875 -1.234375 C -22.859375 -1.375 -23.046875 -1.828125 -23.171875 -2.21875 C -22.984375 -2.078125 -22.859375 -1.953125 -22.71875 -1.828125 L -21.9375 -1.109375 L -20.3125 0.328125 C -19.53125 1.046875 -18.5625 1.828125 -17.96875 2.15625 C -17.84375 2.28125 -17.640625 2.28125 -17.515625 2.28125 C -17.3125 2.28125 -17.3125 2.21875 -17.3125 2.078125 L -17.3125 1.953125 C -17.3125 1.765625 -17.390625 1.6875 -17.578125 1.5625 C -17.90625 1.4375 -18.5625 0.90625 -19.015625 0.328125 C -19.859375 -0.71875 -20.765625 -2.28125 -20.640625 -2.671875 C -20.640625 -2.796875 -20.25 -2.859375 -19.921875 -2.734375 C -19.65625 -2.546875 -19.59375 -2.46875 -19.53125 -2.21875 C -19.53125 -1.828125 -18.953125 -0.78125 -18.359375 -0.0625 C -17.578125 0.90625 -16.671875 1.5625 -16.140625 1.5 Z M -24.671875 -4.421875 C -24.734375 -4.421875 -24.8125 -4.421875 -24.8125 -4.5 L -25.515625 -5.203125 C -26.625 -6.375 -28.640625 -8.53125 -28.640625 -8.59375 C -28.640625 -8.65625 -28.84375 -8.859375 -29.109375 -9.109375 C -29.890625 -9.96875 -31.25 -11.921875 -32.09375 -13.34375 C -32.75 -14.515625 -33.46875 -16.078125 -33.796875 -17.125 L -34.125 -18.09375 C -34.25 -18.234375 -34.375 -19.34375 -34.3125 -19.53125 C -34.3125 -19.59375 -34.1875 -19.734375 -34.125 -19.734375 C -34.046875 -19.734375 -33.921875 -19.734375 -33.859375 -19.65625 L -33.46875 -19.40625 C -33.265625 -19.203125 -33.015625 -19.078125 -33.015625 -19.015625 L -32.484375 -18.421875 C -32.09375 -18.03125 -31.453125 -17.1875 -30.921875 -16.40625 L -29.625 -14.453125 L -28.84375 -13.015625 L -28.1875 -11.921875 C -28 -11.59375 -27.734375 -11.140625 -27.671875 -10.9375 C -27.609375 -10.75 -27.46875 -10.421875 -27.34375 -10.15625 L -26.6875 -8.921875 L -26.109375 -7.546875 C -25.984375 -7.296875 -25.265625 -5.859375 -25.265625 -5.796875 C -25.265625 -5.734375 -25.0625 -5.40625 -24.875 -5.015625 C -24.671875 -4.625 -24.609375 -4.421875 -24.671875 -4.421875 Z M -16.53125 0.90625 C -16.53125 1.109375 -17.703125 0.0625 -18.171875 -0.453125 C -18.5625 -1.046875 -19.015625 -1.828125 -19.015625 -2.015625 C -19.015625 -2.078125 -19.015625 -2.078125 -18.875 -2.015625 C -18.484375 -1.6875 -16.46875 0.78125 -16.53125 0.90625 Z M -16.53125 0.90625 "/></g></g></g><g fill="#ffffff" fill-opacity="1"><g transform="translate(146.330313, 190.610046)"><g><path d="M -17.78125 -1.4375 C -17.703125 -1.6875 -17.703125 -1.953125 -17.78125 -2.21875 L -17.78125 -2.40625 C -17.78125 -2.40625 -18.03125 -3.578125 -18.625 -4.8125 L -20.3125 -8.53125 C -20.375 -8.65625 -20.578125 -8.65625 -20.640625 -8.53125 L -20.703125 -8.46875 L -20.703125 -8.265625 L -20.640625 -8.140625 C -19.40625 -5.28125 -18.625 -3.328125 -18.421875 -2.46875 C -18.421875 -2.46875 -18.171875 -1.625 -18.421875 -1.5625 C -19.015625 -1.296875 -19.734375 -1.765625 -20.125 -2.078125 C -20.4375 -2.34375 -21.21875 -3 -21.21875 -2.21875 C -21.21875 -2.078125 -21.296875 -1.890625 -21.359375 -1.890625 C -21.609375 -1.828125 -21.546875 -1.625 -20.96875 -0.515625 C -20.4375 0.453125 -19.65625 1.6875 -19.015625 2.46875 C -18.75 2.796875 -18.625 2.9375 -18.421875 2.9375 C -18.09375 2.9375 -18.03125 2.734375 -18.03125 2.34375 C -18.03125 2.015625 -18.6875 0.71875 -19.078125 0.203125 C -19.53125 -0.328125 -19.984375 -1.171875 -19.921875 -1.171875 L -19.46875 -0.984375 C -19.265625 -0.84375 -19.015625 -0.78125 -18.8125 -0.78125 C -18.5625 -0.71875 -18.359375 -0.71875 -18.09375 -0.90625 C -17.90625 -1.046875 -17.78125 -1.171875 -17.78125 -1.4375 Z M -18.625 2.21875 L -18.875 1.828125 C -19.265625 1.4375 -19.984375 0.390625 -20.375 -0.453125 C -20.765625 -1.109375 -20.765625 -1.234375 -20.640625 -1.234375 C -20.578125 -1.234375 -20.4375 -1.046875 -20.375 -0.84375 C -20.125 -0.328125 -19.921875 -0.0625 -19.796875 0.0625 C -19.65625 0.203125 -19.015625 1.296875 -18.75 1.828125 Z M -18.625 2.21875 "/></g></g></g><g fill="#ffffff" fill-opacity="1"><g transform="translate(146.330313, 182.276047)"><g><path d="M -17.515625 1.765625 C -17.703125 1.625 -17.96875 1.234375 -18.171875 0.984375 L -18.6875 0.265625 C -18.953125 0 -19.140625 -0.390625 -19.796875 -1.765625 L -20.1875 -2.46875 C -20.3125 -2.796875 -20.3125 -2.859375 -20.125 -3.125 C -19.921875 -3.515625 -19.984375 -4.03125 -20.3125 -4.953125 L -20.828125 -5.984375 L -21.15625 -6.703125 C -21.21875 -6.84375 -21.296875 -7.15625 -21.296875 -7.296875 C -21.296875 -7.484375 -21.359375 -7.625 -21.484375 -7.8125 C -21.875 -8.203125 -22.078125 -8.265625 -22.265625 -8.140625 C -22.53125 -8.015625 -22.53125 -7.8125 -22.140625 -7.296875 C -22 -7.03125 -21.875 -6.84375 -21.875 -6.765625 C -21.875 -6.703125 -21.8125 -6.515625 -21.6875 -6.3125 C -21.296875 -5.734375 -20.703125 -4.421875 -20.703125 -4.03125 C -20.703125 -3.90625 -20.765625 -3.84375 -20.96875 -3.78125 C -21.359375 -3.71875 -21.421875 -3.515625 -21.21875 -3.125 C -21.09375 -3 -20.515625 -1.625 -20.3125 -1.296875 L -20.046875 -0.71875 C -19.921875 -0.515625 -20.1875 -0.71875 -20.640625 -1.234375 C -21.21875 -1.890625 -21.609375 -2.015625 -21.75 -1.625 C -21.8125 -1.4375 -21.8125 -1.296875 -21.609375 -1.046875 C -21.296875 -0.453125 -19.796875 1.046875 -19.140625 1.5625 L -18.421875 2.15625 C -18.171875 2.34375 -17.90625 2.546875 -17.78125 2.609375 C -17.25 2.671875 -17.125 2.078125 -17.515625 1.765625 Z M -17.515625 1.765625 "/></g></g></g><g fill="#ffffff" fill-opacity="1"><g transform="translate(146.330313, 172.118981)"><g><path d="M -17.703125 0.78125 C -17.703125 -0.125 -18.6875 -1.5 -19.203125 -1.828125 L -19.265625 -2.015625 C -19.140625 -2.671875 -19.078125 -3.453125 -19.078125 -4.296875 C -19.078125 -5.203125 -19.34375 -7.296875 -19.921875 -8.65625 L -20.1875 -9.25 C -20.25 -9.375 -20.375 -9.4375 -20.515625 -9.375 C -20.640625 -9.3125 -20.640625 -9.109375 -20.578125 -9.046875 C -20.046875 -7.8125 -19.53125 -6.375 -19.53125 -4.171875 C -19.53125 -3.640625 -19.59375 -3.125 -19.734375 -2.734375 C -19.796875 -2.609375 -19.859375 -2.46875 -19.921875 -2.21875 L -20.515625 -2.21875 C -20.578125 -2.21875 -20.703125 -2.21875 -20.765625 -2.15625 C -20.90625 -2.078125 -21.03125 -1.890625 -21.03125 -1.6875 L -21.09375 -0.84375 L -21.15625 -0.71875 L -20.96875 -0.203125 L -19.859375 0.90625 C -19.65625 1.109375 -18.421875 1.828125 -17.90625 1.5 C -17.640625 1.296875 -17.640625 1.296875 -17.703125 0.78125 Z M -20.25 -1.296875 C -20.3125 -1.171875 -20.375 -1.109375 -20.375 -1.234375 C -20.375 -1.296875 -20.3125 -1.375 -20.3125 -1.4375 C -20.25 -1.4375 -20.1875 -1.4375 -20.25 -1.296875 Z M -18.296875 0.59375 C -18.296875 0.65625 -18.625 0.90625 -19.40625 0.328125 C -19.921875 -0.0625 -19.984375 -0.265625 -19.984375 -0.453125 L -19.796875 -0.71875 L -19.59375 -1.109375 C -19.53125 -1.171875 -19.46875 -1.4375 -18.75 -0.59375 C -18.234375 0 -18.296875 0.515625 -18.296875 0.59375 Z M -18.296875 0.59375 "/></g></g></g><g fill="#ffffff" fill-opacity="1"><g transform="translate(146.330313, 163.003671)"><g><path d="M -16.734375 0.125 C -16.734375 -0.125 -17.390625 -0.90625 -17.96875 -1.296875 C -18.171875 -1.4375 -19.140625 -2.28125 -19.796875 -2.546875 C -20.125 -2.671875 -20.125 -2.859375 -20.125 -3.125 C -20.1875 -3.390625 -19.984375 -3.453125 -19.984375 -3.640625 L -19.734375 -4.75 L -19.59375 -5.671875 C -19.46875 -6.375 -19.40625 -7.03125 -19.40625 -7.875 L -19.40625 -9.109375 C -19.40625 -9.5 -19.59375 -10.8125 -19.59375 -11.0625 L -19.734375 -11.78125 C -19.921875 -12.5 -20.125 -12.953125 -20.3125 -12.953125 C -20.640625 -12.703125 -20.375 -12.765625 -20.25 -12.046875 C -20.125 -11.65625 -19.859375 -10.28125 -19.859375 -7.625 C -19.921875 -5.796875 -20.25 -4.625 -20.765625 -3.453125 C -21.09375 -2.609375 -20.90625 -2.15625 -20.765625 -2.21875 C -20.703125 -2.21875 -20.25 -2.078125 -19.796875 -1.828125 C -19.015625 -1.5 -18.75 -1.296875 -18.171875 -0.71875 C -17.515625 -0.0625 -17.3125 0.203125 -17.515625 0.265625 C -17.84375 0.390625 -19.265625 0 -20.1875 -0.453125 C -20.765625 -0.78125 -21.484375 -1.109375 -21.8125 -0.90625 L -22 -0.84375 C -22 -0.84375 -22 -0.71875 -21.9375 -0.59375 C -21.9375 -0.515625 -21.75 -0.328125 -21.421875 -0.203125 C -21.359375 -0.125 -20.703125 0 -20.640625 0.0625 C -19.734375 0.515625 -18.625 0.90625 -18.03125 0.984375 C -17.1875 1.046875 -16.671875 0.71875 -16.734375 0.125 Z M -16.734375 0.125 "/></g></g></g><g fill="#ffffff" fill-opacity="1"><g transform="translate(146.330313, 150.046911)"><g><path d="M -17.78125 -1.4375 C -17.703125 -1.6875 -17.703125 -1.953125 -17.78125 -2.21875 L -17.78125 -2.40625 C -17.78125 -2.40625 -18.03125 -3.578125 -18.625 -4.8125 L -20.3125 -8.53125 C -20.375 -8.65625 -20.578125 -8.65625 -20.640625 -8.53125 L -20.703125 -8.46875 L -20.703125 -8.265625 L -20.640625 -8.140625 C -19.40625 -5.28125 -18.625 -3.328125 -18.421875 -2.46875 C -18.421875 -2.46875 -18.171875 -1.625 -18.421875 -1.5625 C -19.015625 -1.296875 -19.734375 -1.765625 -20.125 -2.078125 C -20.4375 -2.34375 -21.21875 -3 -21.21875 -2.21875 C -21.21875 -2.078125 -21.296875 -1.890625 -21.359375 -1.890625 C -21.609375 -1.828125 -21.546875 -1.625 -20.96875 -0.515625 C -20.4375 0.453125 -19.65625 1.6875 -19.015625 2.46875 C -18.75 2.796875 -18.625 2.9375 -18.421875 2.9375 C -18.09375 2.9375 -18.03125 2.734375 -18.03125 2.34375 C -18.03125 2.015625 -18.6875 0.71875 -19.078125 0.203125 C -19.53125 -0.328125 -19.984375 -1.171875 -19.921875 -1.171875 L -19.46875 -0.984375 C -19.265625 -0.84375 -19.015625 -0.78125 -18.8125 -0.78125 C -18.5625 -0.71875 -18.359375 -0.71875 -18.09375 -0.90625 C -17.90625 -1.046875 -17.78125 -1.171875 -17.78125 -1.4375 Z M -18.625 2.21875 L -18.875 1.828125 C -19.265625 1.4375 -19.984375 0.390625 -20.375 -0.453125 C -20.765625 -1.109375 -20.765625 -1.234375 -20.640625 -1.234375 C -20.578125 -1.234375 -20.4375 -1.046875 -20.375 -0.84375 C -20.125 -0.328125 -19.921875 -0.0625 -19.796875 0.0625 C -19.65625 0.203125 -19.015625 1.296875 -18.75 1.828125 Z M -18.625 2.21875 "/></g></g></g></svg>