<svg xmlns="http://www.w3.org/2000/svg" xmlns:xlink="http://www.w3.org/1999/xlink" width="500" zoomAndPan="magnify" viewBox="0 0 375 374.999991" height="500" preserveAspectRatio="xMidYMid meet" version="1.0"><defs><g/></defs><g fill="#000000" fill-opacity="1"><g transform="translate(93.829035, 276.029367)"><g><path d="M 5.265625 -30.6875 C 5.265625 -37.9375 6.957031 -44.453125 10.34375 -50.234375 C 13.738281 -56.023438 18.09375 -61.285156 23.40625 -66.015625 C 28.726562 -70.753906 34.367188 -75.078125 40.328125 -78.984375 C 46.285156 -82.898438 51.925781 -86.523438 57.25 -89.859375 C 62.570312 -93.191406 66.925781 -96.378906 70.3125 -99.421875 C 73.695312 -102.460938 75.390625 -105.5 75.390625 -108.53125 C 75.390625 -110.175781 74.976562 -111.375 74.15625 -112.125 C 73.34375 -112.882812 72.351562 -113.265625 71.1875 -113.265625 C 69.082031 -113.265625 67.125 -112.328125 65.3125 -110.453125 C 63.5 -108.585938 61.71875 -106.457031 59.96875 -104.0625 C 58.21875 -101.664062 56.316406 -99.53125 54.265625 -97.65625 C 52.222656 -95.789062 49.972656 -94.859375 47.515625 -94.859375 C 45.066406 -94.859375 43.578125 -95.851562 43.046875 -97.84375 C 42.523438 -99.832031 42.671875 -101.9375 43.484375 -104.15625 C 46.171875 -111.164062 48.625 -117.679688 50.84375 -123.703125 C 53.070312 -129.722656 55.265625 -135.566406 57.421875 -141.234375 C 59.585938 -146.910156 61.804688 -152.785156 64.078125 -158.859375 C 66.359375 -164.941406 68.90625 -171.601562 71.71875 -178.84375 L 73.46875 -178.84375 L 129.578125 -30.6875 C 133.429688 -21.101562 137.050781 -13.882812 140.4375 -9.03125 C 143.832031 -4.175781 148.21875 -1.75 153.59375 -1.75 L 153.59375 0 L 96.09375 0 L 96.09375 -1.75 C 102.28125 -1.75 106.984375 -2.566406 110.203125 -4.203125 C 113.421875 -5.835938 115.492188 -8.117188 116.421875 -11.046875 C 117.359375 -13.972656 117.476562 -17.363281 116.78125 -21.21875 C 116.082031 -25.070312 114.910156 -29.222656 113.265625 -33.671875 L 91.53125 -91 C 92.226562 -85.394531 92.578125 -78.382812 92.578125 -69.96875 C 92.578125 -55.820312 90.382812 -43.195312 86 -32.09375 C 81.625 -20.988281 75.3125 -12.28125 67.0625 -5.96875 C 58.820312 0.34375 48.859375 3.5 37.171875 3.5 C 30.390625 3.5 24.628906 1.921875 19.890625 -1.234375 C 15.160156 -4.390625 11.539062 -8.566406 9.03125 -13.765625 C 6.519531 -18.960938 5.265625 -24.601562 5.265625 -30.6875 Z M 20.171875 -34.015625 C 20.171875 -25.835938 22.625 -18.941406 27.53125 -13.328125 C 32.4375 -7.710938 39.15625 -4.90625 47.6875 -4.90625 C 55.050781 -4.90625 61.421875 -6.890625 66.796875 -10.859375 C 72.179688 -14.835938 76.65625 -20.039062 80.21875 -26.46875 C 83.78125 -32.90625 86.4375 -39.921875 88.1875 -47.515625 C 89.945312 -55.117188 90.828125 -62.484375 90.828125 -69.609375 C 90.828125 -76.160156 90.617188 -82.003906 90.203125 -87.140625 C 89.796875 -92.285156 88.773438 -97.429688 87.140625 -102.578125 L 65.921875 -158.515625 L 45.765625 -104.859375 C 44.597656 -101.816406 44.273438 -99.679688 44.796875 -98.453125 C 45.328125 -97.222656 46.289062 -96.609375 47.6875 -96.609375 C 49.675781 -96.609375 51.601562 -97.539062 53.46875 -99.40625 C 55.34375 -101.28125 57.210938 -103.414062 59.078125 -105.8125 C 60.953125 -108.21875 62.910156 -110.351562 64.953125 -112.21875 C 67.003906 -114.09375 69.203125 -115.03125 71.546875 -115.03125 C 73.179688 -115.03125 74.550781 -114.472656 75.65625 -113.359375 C 76.769531 -112.242188 77.328125 -110.519531 77.328125 -108.1875 C 77.328125 -104.332031 75.953125 -100.796875 73.203125 -97.578125 C 70.453125 -94.359375 66.914062 -91.226562 62.59375 -88.1875 C 58.269531 -85.15625 53.648438 -81.941406 48.734375 -78.546875 C 43.828125 -75.160156 39.210938 -71.390625 34.890625 -67.234375 C 30.566406 -63.085938 27.03125 -58.328125 24.28125 -52.953125 C 21.539062 -47.578125 20.171875 -41.265625 20.171875 -34.015625 Z M 20.171875 -34.015625 "/></g></g></g><g fill="#000000" fill-opacity="1"><g transform="translate(146.330313, 277.791486)"><g><path d="M -0.515625 -6.96875 L -0.78125 -6.515625 L -1.5 -6.640625 C -2.363281 -6.773438 -2.863281 -7.125 -3 -7.6875 C -3.082031 -7.851562 -3.0625 -8.046875 -2.9375 -8.265625 C -2.84375 -8.359375 -2.726562 -8.40625 -2.59375 -8.40625 C -2.46875 -8.40625 -2.234375 -8.335938 -1.890625 -8.203125 C -1.710938 -8.160156 -1.613281 -8.171875 -1.59375 -8.234375 C -1.570312 -8.296875 -1.5625 -8.585938 -1.5625 -9.109375 C -1.519531 -9.460938 -1.53125 -9.800781 -1.59375 -10.125 C -1.65625 -10.445312 -1.710938 -10.738281 -1.765625 -11 L -2.21875 -12.5625 C -2.300781 -12.957031 -2.394531 -13.328125 -2.5 -13.671875 C -2.613281 -14.015625 -2.820312 -14.625 -3.125 -15.5 L -3.390625 -16.28125 L -3.71875 -17 L -4.171875 -18.03125 C -4.210938 -18.164062 -4.316406 -18.40625 -4.484375 -18.75 C -4.660156 -19.09375 -4.835938 -19.460938 -5.015625 -19.859375 C -5.234375 -20.242188 -5.414062 -20.578125 -5.5625 -20.859375 C -5.71875 -21.148438 -5.773438 -21.296875 -5.734375 -21.296875 C -5.734375 -21.335938 -5.785156 -21.453125 -5.890625 -21.640625 C -6.003906 -21.835938 -6.125 -22.046875 -6.25 -22.265625 C -6.59375 -22.867188 -6.742188 -23.195312 -6.703125 -23.25 C -6.703125 -23.332031 -6.832031 -23.460938 -7.09375 -23.640625 L -7.6875 -24.28125 L -8.078125 -24.9375 C -8.296875 -25.0625 -8.40625 -25.253906 -8.40625 -25.515625 C -8.488281 -25.734375 -8.640625 -25.953125 -8.859375 -26.171875 C -9.078125 -26.390625 -9.1875 -26.5625 -9.1875 -26.6875 C -9.1875 -26.820312 -9.269531 -26.976562 -9.4375 -27.15625 L -10.359375 -28.328125 C -10.566406 -28.535156 -10.734375 -28.71875 -10.859375 -28.875 C -10.992188 -29.03125 -11.085938 -29.109375 -11.140625 -29.109375 C -11.179688 -29.109375 -11.265625 -29.257812 -11.390625 -29.5625 C -11.429688 -29.6875 -11.550781 -29.890625 -11.75 -30.171875 C -11.945312 -30.453125 -12.15625 -30.75 -12.375 -31.0625 C -12.894531 -31.75 -13.316406 -32.320312 -13.640625 -32.78125 C -13.960938 -33.238281 -14.472656 -33.96875 -15.171875 -34.96875 C -15.515625 -35.394531 -15.816406 -35.789062 -16.078125 -36.15625 C -16.335938 -36.53125 -16.488281 -36.738281 -16.53125 -36.78125 C -16.625 -36.875 -16.679688 -36.941406 -16.703125 -36.984375 C -16.722656 -37.023438 -16.734375 -37.046875 -16.734375 -37.046875 C -16.734375 -37.085938 -16.820312 -37.238281 -17 -37.5 L -17.96875 -38.9375 C -18.488281 -39.675781 -19 -40.398438 -19.5 -41.109375 C -20 -41.828125 -20.335938 -42.296875 -20.515625 -42.515625 C -20.722656 -42.734375 -20.828125 -42.882812 -20.828125 -42.96875 C -20.828125 -43.101562 -20.957031 -43.300781 -21.21875 -43.5625 L -22.078125 -44.734375 C -22.203125 -44.953125 -22.363281 -45.203125 -22.5625 -45.484375 C -22.757812 -45.765625 -22.941406 -45.988281 -23.109375 -46.15625 L -23.953125 -47.265625 C -23.953125 -47.097656 -23.929688 -46.867188 -23.890625 -46.578125 C -23.847656 -46.296875 -23.785156 -45.921875 -23.703125 -45.453125 L -23.375 -43.03125 C -23.195312 -41.78125 -23.019531 -40.796875 -22.84375 -40.078125 C -22.675781 -39.359375 -22.484375 -38.78125 -22.265625 -38.34375 C -21.960938 -37.519531 -22.003906 -37.046875 -22.390625 -36.921875 L -22.71875 -36.921875 C -22.757812 -36.960938 -22.84375 -37.242188 -22.96875 -37.765625 C -23.101562 -38.285156 -23.25 -38.847656 -23.40625 -39.453125 C -23.5625 -40.066406 -23.640625 -40.476562 -23.640625 -40.6875 L -23.890625 -42 C -23.984375 -42.21875 -24.050781 -42.53125 -24.09375 -42.9375 C -24.132812 -43.351562 -24.175781 -43.753906 -24.21875 -44.140625 C -24.394531 -45.359375 -24.515625 -46.226562 -24.578125 -46.75 C -24.640625 -47.269531 -24.691406 -47.550781 -24.734375 -47.59375 C -24.785156 -47.632812 -24.796875 -47.695312 -24.765625 -47.78125 C -24.742188 -47.875 -24.734375 -47.941406 -24.734375 -47.984375 C -24.648438 -48.203125 -24.738281 -48.503906 -25 -48.890625 L -25.84375 -50 C -26.363281 -50.5625 -26.515625 -50.84375 -26.296875 -50.84375 C -26.210938 -50.84375 -25.890625 -50.5 -25.328125 -49.8125 C -25.191406 -49.632812 -25.082031 -49.535156 -25 -49.515625 C -24.914062 -49.492188 -24.894531 -49.546875 -24.9375 -49.671875 C -24.976562 -49.722656 -25.007812 -49.921875 -25.03125 -50.265625 C -25.050781 -50.609375 -25.0625 -51 -25.0625 -51.4375 L -25.390625 -55.53125 C -25.429688 -55.582031 -25.65625 -55.8125 -26.0625 -56.21875 C -26.476562 -56.632812 -27.226562 -57.382812 -28.3125 -58.46875 C -29.40625 -59.550781 -30.953125 -61.070312 -32.953125 -63.03125 C -33.296875 -63.375 -33.585938 -63.65625 -33.828125 -63.875 C -34.066406 -64.09375 -34.207031 -64.203125 -34.25 -64.203125 L -34.3125 -64.265625 C -34.3125 -64.347656 -34.59375 -64.671875 -35.15625 -65.234375 C -35.8125 -65.890625 -36.53125 -66.640625 -37.3125 -67.484375 C -38.09375 -68.328125 -38.742188 -69.035156 -39.265625 -69.609375 C -41.347656 -71.816406 -41.929688 -72.335938 -41.015625 -71.171875 L -38.8125 -67.96875 C -38.675781 -67.664062 -38.546875 -67.492188 -38.421875 -67.453125 C -38.367188 -67.410156 -38.289062 -67.320312 -38.1875 -67.1875 C -38.082031 -67.0625 -37.984375 -66.929688 -37.890625 -66.796875 L -37.5 -66.21875 C -37.414062 -66.175781 -37.285156 -66 -37.109375 -65.6875 C -36.941406 -65.382812 -36.832031 -65.171875 -36.78125 -65.046875 C -36.738281 -64.910156 -36.675781 -64.84375 -36.59375 -64.84375 C -36.59375 -64.84375 -36.523438 -64.78125 -36.390625 -64.65625 C -36.347656 -64.570312 -36.195312 -64.332031 -35.9375 -63.9375 C -35.675781 -63.539062 -35.460938 -63.257812 -35.296875 -63.09375 C -35.242188 -63.050781 -35.195312 -62.984375 -35.15625 -62.890625 C -35.113281 -62.804688 -35.09375 -62.722656 -35.09375 -62.640625 C -35.050781 -62.503906 -34.988281 -62.4375 -34.90625 -62.4375 C -34.90625 -62.4375 -34.878906 -62.40625 -34.828125 -62.34375 C -34.785156 -62.28125 -34.742188 -62.203125 -34.703125 -62.109375 C -34.660156 -62.066406 -34.582031 -61.96875 -34.46875 -61.8125 C -34.363281 -61.664062 -34.269531 -61.550781 -34.1875 -61.46875 C -33.925781 -61.207031 -33.796875 -61.007812 -33.796875 -60.875 C -33.796875 -60.789062 -33.707031 -60.703125 -33.53125 -60.609375 C -33.351562 -60.441406 -33.265625 -60.359375 -33.265625 -60.359375 C -33.265625 -60.316406 -33.1875 -60.195312 -33.03125 -60 C -32.882812 -59.800781 -32.550781 -59.351562 -32.03125 -58.65625 L -31.3125 -57.6875 C -31.226562 -57.601562 -31.109375 -57.460938 -30.953125 -57.265625 C -30.804688 -57.066406 -30.644531 -56.90625 -30.46875 -56.78125 C -30.164062 -56.382812 -30.015625 -56.144531 -30.015625 -56.0625 C -30.015625 -55.925781 -29.882812 -55.6875 -29.625 -55.34375 C -29.539062 -55.257812 -29.398438 -55.109375 -29.203125 -54.890625 C -29.003906 -54.671875 -28.84375 -54.453125 -28.71875 -54.234375 C -28.40625 -53.796875 -28.1875 -53.578125 -28.0625 -53.578125 C -27.976562 -53.578125 -27.9375 -53.535156 -27.9375 -53.453125 C -27.9375 -53.410156 -27.628906 -53 -27.015625 -52.21875 C -26.847656 -52.039062 -26.765625 -51.910156 -26.765625 -51.828125 C -26.765625 -51.742188 -26.71875 -51.613281 -26.625 -51.4375 C -26.457031 -51.175781 -26.457031 -51.046875 -26.625 -51.046875 C -26.664062 -51.046875 -26.863281 -51.265625 -27.21875 -51.703125 L -27.859375 -52.546875 C -27.992188 -52.671875 -28.0625 -52.753906 -28.0625 -52.796875 C -28.0625 -52.847656 -28.148438 -53.003906 -28.328125 -53.265625 C -28.585938 -53.566406 -28.832031 -53.867188 -29.0625 -54.171875 C -29.300781 -54.472656 -29.421875 -54.644531 -29.421875 -54.6875 C -29.421875 -54.78125 -29.445312 -54.828125 -29.5 -54.828125 C -29.5 -54.828125 -29.570312 -54.921875 -29.71875 -55.109375 C -29.875 -55.304688 -30.035156 -55.515625 -30.203125 -55.734375 L -31.515625 -57.484375 L -31.90625 -57.953125 L -32.484375 -58.734375 L -33.34375 -59.828125 L -33.734375 -60.421875 L -33.984375 -60.875 C -34.117188 -61.007812 -34.421875 -61.367188 -34.890625 -61.953125 C -35.367188 -62.535156 -35.765625 -63.066406 -36.078125 -63.546875 L -36.65625 -64.203125 C -36.695312 -64.242188 -36.738281 -64.316406 -36.78125 -64.421875 C -36.832031 -64.535156 -36.878906 -64.613281 -36.921875 -64.65625 L -37.25 -65.171875 L -38.671875 -66.875 L -39.59375 -68.171875 C -39.800781 -68.429688 -39.984375 -68.65625 -40.140625 -68.84375 C -40.296875 -69.039062 -40.394531 -69.140625 -40.4375 -69.140625 C -40.519531 -69.234375 -40.539062 -69.300781 -40.5 -69.34375 C -40.5 -69.34375 -40.5 -69.351562 -40.5 -69.375 C -40.5 -69.394531 -40.519531 -69.40625 -40.5625 -69.40625 C -40.644531 -69.40625 -40.6875 -69.445312 -40.6875 -69.53125 C -40.6875 -69.582031 -40.734375 -69.691406 -40.828125 -69.859375 L -41.21875 -70.3125 L -41.609375 -70.96875 L -43.296875 -73.3125 C -43.515625 -73.65625 -43.753906 -73.96875 -44.015625 -74.25 C -44.273438 -74.539062 -44.445312 -74.726562 -44.53125 -74.8125 L -44.984375 -75.46875 C -45.078125 -75.550781 -45.253906 -75.679688 -45.515625 -75.859375 C -45.734375 -75.941406 -45.90625 -76.046875 -46.03125 -76.171875 C -46.25 -76.390625 -46.269531 -76.628906 -46.09375 -76.890625 C -45.789062 -77.109375 -45.421875 -77.109375 -44.984375 -76.890625 C -44.816406 -76.847656 -44.472656 -76.566406 -43.953125 -76.046875 C -43.429688 -75.523438 -43.0625 -75.113281 -42.84375 -74.8125 C -42.707031 -74.632812 -42.335938 -74.1875 -41.734375 -73.46875 C -41.128906 -72.757812 -40.585938 -72.144531 -40.109375 -71.625 L -37.828125 -69.015625 L -36.921875 -68.046875 C -36.484375 -67.566406 -35.566406 -66.628906 -34.171875 -65.234375 C -32.785156 -63.847656 -31.3125 -62.414062 -29.75 -60.9375 L -26.5 -57.6875 L -25.515625 -56.84375 C -25.515625 -56.882812 -25.503906 -56.988281 -25.484375 -57.15625 C -25.460938 -57.332031 -25.472656 -57.53125 -25.515625 -57.75 L -25.59375 -61.203125 C -25.632812 -61.941406 -25.664062 -62.644531 -25.6875 -63.3125 C -25.707031 -63.988281 -25.738281 -64.457031 -25.78125 -64.71875 C -25.863281 -65.320312 -25.914062 -65.773438 -25.9375 -66.078125 C -25.96875 -66.390625 -26.003906 -66.9375 -26.046875 -67.71875 C -26.085938 -68.320312 -26.097656 -68.722656 -26.078125 -68.921875 C -26.054688 -69.117188 -26 -69.257812 -25.90625 -69.34375 C -25.738281 -69.6875 -25.523438 -69.738281 -25.265625 -69.5 C -25.003906 -69.257812 -24.828125 -68.859375 -24.734375 -68.296875 C -24.691406 -67.992188 -24.757812 -67.753906 -24.9375 -67.578125 C -25.019531 -67.453125 -25.070312 -67.320312 -25.09375 -67.1875 C -25.113281 -67.0625 -25.101562 -66.671875 -25.0625 -66.015625 C -25.019531 -65.191406 -24.988281 -64.320312 -24.96875 -63.40625 C -24.945312 -62.5 -24.914062 -61.332031 -24.875 -59.90625 C -24.875 -58.46875 -24.828125 -57.445312 -24.734375 -56.84375 L -24.671875 -56.0625 L -23.765625 -55.21875 L -22.65625 -54.109375 L -21.546875 -53.1875 L -19.859375 -51.703125 L -16.734375 -49.03125 L -14.1875 -46.8125 L -11.984375 -44.984375 C -11.804688 -44.816406 -11.46875 -44.59375 -10.96875 -44.3125 C -10.46875 -44.03125 -10.175781 -43.890625 -10.09375 -43.890625 C -10.007812 -43.890625 -9.867188 -43.84375 -9.671875 -43.75 C -9.472656 -43.664062 -9.375 -43.601562 -9.375 -43.5625 L -9.5 -43.234375 C -9.550781 -43.015625 -9.679688 -42.90625 -9.890625 -42.90625 C -10.109375 -42.90625 -10.421875 -43.015625 -10.828125 -43.234375 C -11.242188 -43.453125 -11.539062 -43.644531 -11.71875 -43.8125 L -12.4375 -44.34375 C -12.78125 -44.601562 -12.972656 -44.773438 -13.015625 -44.859375 L -13.9375 -45.640625 C -14.15625 -45.816406 -14.394531 -46.007812 -14.65625 -46.21875 C -14.914062 -46.4375 -15.128906 -46.613281 -15.296875 -46.75 C -15.515625 -46.96875 -15.914062 -47.335938 -16.5 -47.859375 C -17.09375 -48.378906 -17.539062 -48.769531 -17.84375 -49.03125 L -18.625 -49.671875 L -21.8125 -52.40625 L -23.3125 -53.84375 L -24.484375 -54.890625 C -24.566406 -54.929688 -24.609375 -54.800781 -24.609375 -54.5 C -24.609375 -54.195312 -24.566406 -53.609375 -24.484375 -52.734375 L -24.34375 -50.453125 C -24.300781 -49.628906 -24.25 -49.109375 -24.1875 -48.890625 C -24.125 -48.679688 -24.023438 -48.46875 -23.890625 -48.25 C -23.722656 -48.070312 -23.550781 -47.8125 -23.375 -47.46875 L -20.640625 -43.75 C -20.597656 -43.664062 -20.578125 -43.554688 -20.578125 -43.421875 C -20.617188 -43.378906 -20.5625 -43.25 -20.40625 -43.03125 C -20.257812 -42.820312 -20.140625 -42.71875 -20.046875 -42.71875 C -20.003906 -42.71875 -19.875 -42.597656 -19.65625 -42.359375 C -19.445312 -42.117188 -19.234375 -41.820312 -19.015625 -41.46875 L -16.40625 -37.765625 L -10.546875 -29.75 L -10.03125 -28.96875 L -9.109375 -27.734375 L -6.578125 -24.15625 C -6.273438 -23.757812 -6.085938 -23.492188 -6.015625 -23.359375 C -5.953125 -23.234375 -5.75 -22.828125 -5.40625 -22.140625 C -5.226562 -21.835938 -5.0625 -21.554688 -4.90625 -21.296875 C -4.757812 -21.035156 -4.644531 -20.859375 -4.5625 -20.765625 C -4.425781 -20.597656 -4.1875 -20.125 -3.84375 -19.34375 C -3.5 -18.5625 -3.128906 -17.679688 -2.734375 -16.703125 C -2.347656 -15.722656 -2 -14.832031 -1.6875 -14.03125 C -1.382812 -13.226562 -1.210938 -12.71875 -1.171875 -12.5 C -1.171875 -12.28125 -1.082031 -11.957031 -0.90625 -11.53125 C -0.601562 -10.570312 -0.421875 -9.664062 -0.359375 -8.8125 C -0.296875 -7.96875 -0.347656 -7.351562 -0.515625 -6.96875 Z M -0.515625 -6.96875 "/></g></g></g><g fill="#000000" fill-opacity="1"><g transform="translate(146.330313, 220.299909)"><g><path d="M -13.40625 2.859375 C -13.457031 2.953125 -13.535156 3.019531 -13.640625 3.0625 C -13.742188 3.101562 -13.972656 3.144531 -14.328125 3.1875 C -14.671875 3.226562 -15.09375 3.207031 -15.59375 3.125 C -16.09375 3.039062 -16.453125 2.910156 -16.671875 2.734375 C -16.929688 2.648438 -17.082031 2.609375 -17.125 2.609375 C -17.207031 2.566406 -17.300781 2.519531 -17.40625 2.46875 C -17.519531 2.425781 -17.664062 2.34375 -17.84375 2.21875 C -18.0625 2.039062 -18.300781 1.875 -18.5625 1.71875 C -18.820312 1.570312 -18.972656 1.5 -19.015625 1.5 C -19.054688 1.5 -19.085938 1.488281 -19.109375 1.46875 C -19.128906 1.445312 -19.117188 1.4375 -19.078125 1.4375 C -19.078125 1.34375 -19.140625 1.296875 -19.265625 1.296875 C -19.359375 1.296875 -19.40625 1.253906 -19.40625 1.171875 C -19.40625 1.128906 -19.445312 1.109375 -19.53125 1.109375 L -19.734375 0.90625 C -19.734375 0.820312 -19.796875 0.757812 -19.921875 0.71875 C -20.054688 0.71875 -20.125 0.695312 -20.125 0.65625 L -20.765625 0.125 C -21.160156 -0.175781 -21.359375 -0.347656 -21.359375 -0.390625 C -21.359375 -0.429688 -21.398438 -0.453125 -21.484375 -0.453125 C -21.523438 -0.453125 -21.65625 -0.5625 -21.875 -0.78125 L -22.203125 -1.046875 C -22.285156 -1.046875 -22.414062 -1.128906 -22.59375 -1.296875 L -22.59375 -1.171875 C -22.59375 -1.128906 -22.65625 -1.039062 -22.78125 -0.90625 C -22.914062 -0.78125 -23.003906 -0.71875 -23.046875 -0.71875 C -23.179688 -0.71875 -23.203125 -0.757812 -23.109375 -0.84375 C -23.066406 -0.9375 -23.085938 -1.097656 -23.171875 -1.328125 C -23.265625 -1.566406 -23.332031 -1.6875 -23.375 -1.6875 C -23.375 -1.6875 -23.382812 -1.695312 -23.40625 -1.71875 C -23.425781 -1.75 -23.414062 -1.785156 -23.375 -1.828125 C -23.375 -1.828125 -23.375 -1.847656 -23.375 -1.890625 C -23.375 -1.929688 -23.394531 -1.972656 -23.4375 -2.015625 L -24.734375 -3.328125 C -24.867188 -3.492188 -25.21875 -3.867188 -25.78125 -4.453125 C -26.34375 -5.046875 -26.773438 -5.515625 -27.078125 -5.859375 C -27.816406 -6.722656 -28.535156 -7.585938 -29.234375 -8.453125 C -29.929688 -9.328125 -30.582031 -10.175781 -31.1875 -11 C -31.40625 -11.300781 -31.625 -11.625 -31.84375 -11.96875 C -32.0625 -12.320312 -32.253906 -12.648438 -32.421875 -12.953125 C -32.640625 -13.210938 -32.867188 -13.5625 -33.109375 -14 C -33.347656 -14.4375 -33.507812 -14.828125 -33.59375 -15.171875 C -33.726562 -15.515625 -33.738281 -15.785156 -33.625 -15.984375 C -33.519531 -16.179688 -33.335938 -16.234375 -33.078125 -16.140625 C -32.898438 -16.097656 -32.582031 -15.859375 -32.125 -15.421875 C -31.675781 -14.992188 -31.234375 -14.53125 -30.796875 -14.03125 C -30.359375 -13.53125 -30.007812 -13.109375 -29.75 -12.765625 L -28.453125 -11.140625 L -27.796875 -10.28125 L -27.28125 -9.578125 L -26.828125 -8.921875 C -26.785156 -8.835938 -26.609375 -8.554688 -26.296875 -8.078125 C -25.992188 -7.597656 -25.757812 -7.25 -25.59375 -7.03125 C -25.414062 -6.851562 -25.25 -6.632812 -25.09375 -6.375 C -24.945312 -6.113281 -24.875 -5.960938 -24.875 -5.921875 L -24.484375 -5.34375 C -24.304688 -5.082031 -24.171875 -4.882812 -24.078125 -4.75 C -23.992188 -4.625 -23.867188 -4.410156 -23.703125 -4.109375 L -22.921875 -2.9375 C -22.828125 -2.757812 -22.738281 -2.628906 -22.65625 -2.546875 C -22.613281 -2.546875 -22.550781 -2.5 -22.46875 -2.40625 C -22.46875 -2.363281 -22.171875 -2.113281 -21.578125 -1.65625 C -20.992188 -1.207031 -20.34375 -0.707031 -19.625 -0.15625 C -18.914062 0.382812 -18.34375 0.804688 -17.90625 1.109375 C -16.601562 1.972656 -15.453125 2.472656 -14.453125 2.609375 C -13.753906 2.734375 -13.40625 2.816406 -13.40625 2.859375 Z M -24.421875 -4.234375 L -25.125 -5.46875 L -25.328125 -5.734375 C -25.410156 -5.859375 -25.59375 -6.125 -25.875 -6.53125 C -26.15625 -6.945312 -26.382812 -7.242188 -26.5625 -7.421875 C -26.644531 -7.554688 -26.796875 -7.773438 -27.015625 -8.078125 C -27.234375 -8.378906 -27.363281 -8.59375 -27.40625 -8.71875 C -27.5 -8.851562 -27.75 -9.203125 -28.15625 -9.765625 C -28.570312 -10.328125 -28.890625 -10.738281 -29.109375 -11 L -29.359375 -11.390625 C -29.359375 -11.429688 -29.617188 -11.757812 -30.140625 -12.375 L -31.125 -13.609375 L -31.96875 -14.515625 L -32.171875 -14.71875 L -32.359375 -14.84375 L -32.421875 -14.90625 L -32.5625 -15.109375 L -32.625 -15.109375 L -32.75 -15.234375 C -32.789062 -15.273438 -32.820312 -15.296875 -32.84375 -15.296875 C -32.863281 -15.296875 -32.875 -15.296875 -32.875 -15.296875 C -33.050781 -15.296875 -33.097656 -15.253906 -33.015625 -15.171875 C -33.015625 -15.035156 -32.992188 -14.945312 -32.953125 -14.90625 L -32.875 -14.78125 L -32.6875 -14.453125 L -32.421875 -14 L -31.765625 -12.953125 L -31.515625 -12.5625 L -31.0625 -12.046875 L -30.40625 -11.0625 L -28.515625 -8.71875 C -28.515625 -8.675781 -28.265625 -8.363281 -27.765625 -7.78125 C -27.265625 -7.195312 -26.734375 -6.585938 -26.171875 -5.953125 C -25.609375 -5.328125 -25.21875 -4.90625 -25 -4.6875 C -24.695312 -4.425781 -24.507812 -4.265625 -24.4375 -4.203125 C -24.375 -4.140625 -24.367188 -4.148438 -24.421875 -4.234375 Z M -24.421875 -4.234375 "/></g></g></g><g fill="#000000" fill-opacity="1"><g transform="translate(146.330313, 214.570288)"><g><path d="M -17.78125 -1.4375 C -17.78125 -1.21875 -17.882812 -1.039062 -18.09375 -0.90625 C -18.3125 -0.738281 -18.550781 -0.695312 -18.8125 -0.78125 C -19.070312 -0.78125 -19.289062 -0.847656 -19.46875 -0.984375 L -19.921875 -1.171875 C -19.960938 -1.171875 -19.882812 -1.007812 -19.6875 -0.6875 C -19.5 -0.363281 -19.296875 -0.0664062 -19.078125 0.203125 C -18.898438 0.460938 -18.679688 0.835938 -18.421875 1.328125 C -18.160156 1.828125 -18.03125 2.164062 -18.03125 2.34375 C -18.03125 2.738281 -18.160156 2.9375 -18.421875 2.9375 C -18.554688 2.9375 -18.753906 2.78125 -19.015625 2.46875 C -19.359375 2.082031 -19.703125 1.609375 -20.046875 1.046875 C -20.398438 0.484375 -20.707031 -0.0351562 -20.96875 -0.515625 C -21.269531 -1.085938 -21.441406 -1.445312 -21.484375 -1.59375 C -21.523438 -1.75 -21.484375 -1.847656 -21.359375 -1.890625 C -21.265625 -1.890625 -21.21875 -2 -21.21875 -2.21875 C -21.21875 -2.601562 -21.078125 -2.707031 -20.796875 -2.53125 C -20.515625 -2.363281 -20.289062 -2.210938 -20.125 -2.078125 C -19.945312 -1.910156 -19.691406 -1.75 -19.359375 -1.59375 C -19.035156 -1.445312 -18.722656 -1.4375 -18.421875 -1.5625 C -18.296875 -1.601562 -18.265625 -1.765625 -18.328125 -2.046875 C -18.390625 -2.328125 -18.421875 -2.46875 -18.421875 -2.46875 C -18.515625 -2.90625 -18.753906 -3.597656 -19.140625 -4.546875 C -19.535156 -5.503906 -20.035156 -6.703125 -20.640625 -8.140625 L -20.703125 -8.265625 L -20.703125 -8.46875 L -20.640625 -8.53125 C -20.597656 -8.613281 -20.539062 -8.65625 -20.46875 -8.65625 C -20.40625 -8.65625 -20.351562 -8.613281 -20.3125 -8.53125 L -18.625 -4.8125 C -18.320312 -4.207031 -18.101562 -3.65625 -17.96875 -3.15625 C -17.84375 -2.65625 -17.78125 -2.40625 -17.78125 -2.40625 L -17.78125 -2.21875 C -17.726562 -1.957031 -17.726562 -1.695312 -17.78125 -1.4375 Z M -18.625 2.21875 L -18.75 1.828125 C -18.882812 1.566406 -19.082031 1.21875 -19.34375 0.78125 C -19.601562 0.34375 -19.753906 0.101562 -19.796875 0.0625 C -19.960938 -0.113281 -20.15625 -0.414062 -20.375 -0.84375 C -20.46875 -1.101562 -20.554688 -1.234375 -20.640625 -1.234375 C -20.722656 -1.234375 -20.753906 -1.191406 -20.734375 -1.109375 C -20.710938 -1.023438 -20.59375 -0.804688 -20.375 -0.453125 C -20.207031 -0.015625 -19.96875 0.414062 -19.65625 0.84375 C -19.351562 1.28125 -19.09375 1.609375 -18.875 1.828125 Z M -18.625 2.21875 "/></g></g></g><g fill="#000000" fill-opacity="1"><g transform="translate(146.330313, 206.236289)"><g><path d="M -17.515625 -0.71875 C -17.691406 -0.320312 -18.039062 -0.191406 -18.5625 -0.328125 C -18.6875 -0.367188 -18.832031 -0.410156 -19 -0.453125 C -19.175781 -0.492188 -19.421875 -0.582031 -19.734375 -0.71875 C -19.898438 -0.800781 -20.070312 -0.84375 -20.25 -0.84375 C -20.207031 -0.800781 -20.160156 -0.75 -20.109375 -0.6875 C -20.066406 -0.625 -20.023438 -0.546875 -19.984375 -0.453125 C -19.941406 -0.410156 -19.898438 -0.332031 -19.859375 -0.21875 C -19.816406 -0.113281 -19.773438 -0.0390625 -19.734375 0 L -19.140625 0.65625 C -19.054688 0.78125 -18.9375 0.929688 -18.78125 1.109375 C -18.632812 1.285156 -18.472656 1.4375 -18.296875 1.5625 C -17.953125 1.820312 -17.78125 2.0625 -17.78125 2.28125 C -17.726562 2.457031 -17.8125 2.566406 -18.03125 2.609375 C -18.46875 2.648438 -18.859375 2.410156 -19.203125 1.890625 C -19.421875 1.546875 -19.691406 1.21875 -20.015625 0.90625 C -20.347656 0.601562 -20.726562 0.28125 -21.15625 -0.0625 C -21.25 -0.15625 -21.425781 -0.285156 -21.6875 -0.453125 C -21.769531 -0.585938 -21.960938 -0.796875 -22.265625 -1.078125 C -22.566406 -1.359375 -22.859375 -1.640625 -23.140625 -1.921875 C -23.421875 -2.203125 -23.585938 -2.363281 -23.640625 -2.40625 L -24.28125 -3.0625 C -24.414062 -3.1875 -24.484375 -3.207031 -24.484375 -3.125 L -24.546875 -3.328125 C -24.503906 -3.148438 -24.445312 -2.960938 -24.375 -2.765625 C -24.3125 -2.566406 -24.238281 -2.425781 -24.15625 -2.34375 C -24.070312 -2.21875 -23.953125 -1.914062 -23.796875 -1.4375 C -23.640625 -0.957031 -23.5625 -0.628906 -23.5625 -0.453125 C -23.5625 -0.191406 -23.691406 -0.128906 -23.953125 -0.265625 C -24.003906 -0.304688 -24.050781 -0.367188 -24.09375 -0.453125 C -24.132812 -0.546875 -24.175781 -0.65625 -24.21875 -0.78125 L -24.9375 -2.796875 L -25.515625 -4.234375 L -25.59375 -4.421875 L -25.78125 -4.8125 C -25.914062 -5.164062 -26.085938 -5.40625 -26.296875 -5.53125 C -26.390625 -5.625 -26.488281 -5.722656 -26.59375 -5.828125 C -26.707031 -5.929688 -26.804688 -6.050781 -26.890625 -6.1875 L -28.1875 -7.875 C -29.007812 -8.875 -29.734375 -9.796875 -30.359375 -10.640625 C -30.992188 -11.492188 -31.53125 -12.265625 -31.96875 -12.953125 C -32.144531 -13.304688 -32.273438 -13.484375 -32.359375 -13.484375 L -32.421875 -13.546875 C -32.378906 -13.546875 -32.367188 -13.566406 -32.390625 -13.609375 C -32.410156 -13.648438 -32.441406 -13.691406 -32.484375 -13.734375 C -32.535156 -13.828125 -32.613281 -13.9375 -32.71875 -14.0625 C -32.820312 -14.195312 -32.898438 -14.347656 -32.953125 -14.515625 L -33.53125 -15.359375 C -33.875 -15.972656 -34.195312 -16.5625 -34.5 -17.125 C -34.8125 -17.6875 -35.078125 -18.226562 -35.296875 -18.75 L -35.6875 -19.59375 L -35.75 -19.734375 L -36 -20.375 C -36.21875 -20.851562 -36.304688 -21.394531 -36.265625 -22 C -36.222656 -22.351562 -35.960938 -22.53125 -35.484375 -22.53125 C -35.046875 -22.4375 -34.460938 -21.976562 -33.734375 -21.15625 C -33.421875 -20.769531 -33.09375 -20.378906 -32.75 -19.984375 C -32.40625 -19.597656 -32.234375 -19.382812 -32.234375 -19.34375 L -31.96875 -18.953125 C -31.882812 -18.859375 -31.765625 -18.691406 -31.609375 -18.453125 C -31.453125 -18.210938 -31.3125 -17.988281 -31.1875 -17.78125 L -30.53125 -16.859375 C -30.445312 -16.773438 -30.363281 -16.625 -30.28125 -16.40625 C -30.226562 -16.226562 -30.160156 -16.097656 -30.078125 -16.015625 C -30.035156 -15.929688 -29.882812 -15.648438 -29.625 -15.171875 C -29.363281 -14.691406 -29.082031 -14.179688 -28.78125 -13.640625 C -28.476562 -13.097656 -28.238281 -12.628906 -28.0625 -12.234375 L -27.34375 -10.546875 C -26.957031 -9.765625 -26.71875 -9.203125 -26.625 -8.859375 L -25.84375 -6.84375 L -25.328125 -5.53125 C -25.285156 -5.363281 -25.144531 -5.113281 -24.90625 -4.78125 C -24.664062 -4.457031 -24.503906 -4.273438 -24.421875 -4.234375 L -23.5 -3.25 C -23.113281 -2.820312 -22.648438 -2.335938 -22.109375 -1.796875 C -21.566406 -1.253906 -21.25 -1.003906 -21.15625 -1.046875 L -21.421875 -1.625 C -22.066406 -3.1875 -22.285156 -4.226562 -22.078125 -4.75 L -21.6875 -5.015625 C -21.46875 -5.054688 -21.25 -5.015625 -21.03125 -4.890625 C -20.988281 -4.835938 -20.921875 -4.769531 -20.828125 -4.6875 C -20.742188 -4.601562 -20.679688 -4.515625 -20.640625 -4.421875 L -20.4375 -4.109375 C -20.394531 -4.109375 -20.351562 -4.039062 -20.3125 -3.90625 C -20.269531 -3.78125 -20.207031 -3.648438 -20.125 -3.515625 C -19.863281 -2.953125 -19.816406 -2.410156 -19.984375 -1.890625 L -19.984375 -1.625 L -19.734375 -1.5625 C -19.679688 -1.519531 -19.484375 -1.367188 -19.140625 -1.109375 C -18.796875 -0.847656 -18.445312 -0.828125 -18.09375 -1.046875 C -18.050781 -1.085938 -18.082031 -1.421875 -18.1875 -2.046875 C -18.300781 -2.679688 -18.46875 -3.238281 -18.6875 -3.71875 C -18.863281 -4.144531 -19.082031 -4.671875 -19.34375 -5.296875 C -19.601562 -5.929688 -19.90625 -6.640625 -20.25 -7.421875 C -20.425781 -7.765625 -20.5 -8.085938 -20.46875 -8.390625 C -20.445312 -8.703125 -20.265625 -8.488281 -19.921875 -7.75 C -19.617188 -7.144531 -19.367188 -6.59375 -19.171875 -6.09375 C -18.972656 -5.59375 -18.769531 -5.125 -18.5625 -4.6875 C -18.082031 -3.6875 -17.773438 -2.828125 -17.640625 -2.109375 C -17.515625 -1.398438 -17.472656 -0.9375 -17.515625 -0.71875 Z M -26.375 -6.578125 L -26.625 -7.296875 L -26.953125 -8.140625 L -27.078125 -8.40625 L -27.28125 -9.046875 C -27.320312 -9.179688 -27.363281 -9.3125 -27.40625 -9.4375 C -27.445312 -9.570312 -27.46875 -9.640625 -27.46875 -9.640625 C -27.519531 -9.679688 -27.628906 -9.882812 -27.796875 -10.25 C -27.972656 -10.625 -28.144531 -11.015625 -28.3125 -11.421875 C -28.488281 -11.835938 -28.597656 -12.109375 -28.640625 -12.234375 L -28.90625 -12.765625 L -29.5 -13.875 C -29.707031 -14.300781 -29.910156 -14.675781 -30.109375 -15 C -30.304688 -15.332031 -30.492188 -15.628906 -30.671875 -15.890625 L -31.25 -16.859375 C -31.332031 -17.078125 -31.425781 -17.25 -31.53125 -17.375 C -31.644531 -17.507812 -31.722656 -17.597656 -31.765625 -17.640625 C -31.859375 -17.734375 -32.015625 -17.960938 -32.234375 -18.328125 C -32.453125 -18.691406 -32.5625 -18.898438 -32.5625 -18.953125 L -32.8125 -19.203125 L -33.921875 -20.578125 C -34.222656 -20.960938 -34.523438 -21.253906 -34.828125 -21.453125 C -35.140625 -21.648438 -35.335938 -21.703125 -35.421875 -21.609375 C -35.640625 -21.484375 -35.660156 -21.179688 -35.484375 -20.703125 L -35.15625 -19.921875 C -34.851562 -19.097656 -34.300781 -17.957031 -33.5 -16.5 C -32.695312 -15.050781 -31.859375 -13.65625 -30.984375 -12.3125 C -30.722656 -11.875 -30.570312 -11.632812 -30.53125 -11.59375 C -30.53125 -11.550781 -30.378906 -11.332031 -30.078125 -10.9375 L -29.359375 -9.96875 C -29.097656 -9.613281 -28.925781 -9.394531 -28.84375 -9.3125 C -28.707031 -9.226562 -28.554688 -9.03125 -28.390625 -8.71875 L -27.21875 -7.421875 L -26.6875 -6.765625 C -26.644531 -6.640625 -26.582031 -6.554688 -26.5 -6.515625 C -26.414062 -6.472656 -26.375 -6.492188 -26.375 -6.578125 Z M -20.640625 -1.953125 C -20.554688 -2.171875 -20.535156 -2.472656 -20.578125 -2.859375 C -20.617188 -3.253906 -20.703125 -3.492188 -20.828125 -3.578125 C -20.960938 -3.617188 -21.070312 -3.75 -21.15625 -3.96875 C -21.25 -4.144531 -21.328125 -4.242188 -21.390625 -4.265625 C -21.453125 -4.285156 -21.503906 -4.207031 -21.546875 -4.03125 C -21.546875 -3.863281 -21.488281 -3.59375 -21.375 -3.21875 C -21.269531 -2.851562 -21.132812 -2.5625 -20.96875 -2.34375 C -20.925781 -2.300781 -20.878906 -2.234375 -20.828125 -2.140625 C -20.785156 -2.054688 -20.765625 -1.972656 -20.765625 -1.890625 C -20.765625 -1.671875 -20.722656 -1.691406 -20.640625 -1.953125 Z M -20.640625 -1.953125 "/></g></g></g><g fill="#000000" fill-opacity="1"><g transform="translate(146.330313, 198.032512)"><g><path d="M -15.828125 1.5 L -16.140625 1.5 C -16.398438 1.539062 -16.738281 1.410156 -17.15625 1.109375 C -17.570312 0.804688 -17.972656 0.414062 -18.359375 -0.0625 C -18.660156 -0.414062 -18.929688 -0.816406 -19.171875 -1.265625 C -19.410156 -1.722656 -19.53125 -2.039062 -19.53125 -2.21875 C -19.570312 -2.382812 -19.703125 -2.554688 -19.921875 -2.734375 C -20.097656 -2.816406 -20.257812 -2.847656 -20.40625 -2.828125 C -20.5625 -2.804688 -20.640625 -2.753906 -20.640625 -2.671875 C -20.722656 -2.492188 -20.578125 -2.078125 -20.203125 -1.421875 C -19.835938 -0.773438 -19.441406 -0.191406 -19.015625 0.328125 C -18.492188 0.972656 -18.015625 1.382812 -17.578125 1.5625 C -17.398438 1.695312 -17.3125 1.828125 -17.3125 1.953125 L -17.3125 2.078125 C -17.3125 2.210938 -17.378906 2.28125 -17.515625 2.28125 C -17.734375 2.28125 -17.882812 2.238281 -17.96875 2.15625 C -18.269531 1.976562 -18.640625 1.710938 -19.078125 1.359375 C -19.515625 1.015625 -19.925781 0.671875 -20.3125 0.328125 L -21.9375 -1.109375 L -22.71875 -1.828125 C -22.894531 -1.992188 -23.046875 -2.125 -23.171875 -2.21875 C -23.003906 -1.695312 -22.851562 -1.367188 -22.71875 -1.234375 C -22.632812 -1.066406 -22.503906 -0.753906 -22.328125 -0.296875 C -22.160156 0.160156 -22.078125 0.476562 -22.078125 0.65625 C -22.078125 0.914062 -22.179688 0.976562 -22.390625 0.84375 C -22.484375 0.757812 -22.59375 0.585938 -22.71875 0.328125 L -23.109375 -0.71875 L -23.5 -1.625 L -24.09375 -3.125 L -26.4375 -5.46875 L -27.671875 -6.765625 L -29.296875 -8.59375 L -30.53125 -10.21875 L -31.25 -11.203125 L -31.640625 -11.71875 L -32.03125 -12.4375 C -32.46875 -13.039062 -32.867188 -13.722656 -33.234375 -14.484375 C -33.609375 -15.242188 -33.90625 -15.925781 -34.125 -16.53125 L -34.25 -17.0625 C -34.425781 -17.40625 -34.554688 -17.796875 -34.640625 -18.234375 L -34.828125 -18.953125 C -34.921875 -19.253906 -34.96875 -19.535156 -34.96875 -19.796875 C -34.96875 -20.054688 -34.921875 -20.207031 -34.828125 -20.25 C -34.566406 -20.507812 -34.203125 -20.507812 -33.734375 -20.25 C -33.515625 -20.113281 -33.226562 -19.90625 -32.875 -19.625 C -32.53125 -19.34375 -32.316406 -19.117188 -32.234375 -18.953125 L -31.578125 -18.09375 C -31.398438 -17.925781 -31.210938 -17.710938 -31.015625 -17.453125 C -30.828125 -17.191406 -30.6875 -16.972656 -30.59375 -16.796875 L -29.953125 -15.890625 L -29.6875 -15.359375 C -29.601562 -15.191406 -29.539062 -15.109375 -29.5 -15.109375 C -29.40625 -15.109375 -29.316406 -15.019531 -29.234375 -14.84375 L -29.03125 -14.453125 C -28.945312 -14.273438 -28.742188 -13.882812 -28.421875 -13.28125 C -28.097656 -12.675781 -27.738281 -11.992188 -27.34375 -11.234375 C -26.957031 -10.472656 -26.617188 -9.796875 -26.328125 -9.203125 C -26.046875 -8.617188 -25.863281 -8.265625 -25.78125 -8.140625 L -25.265625 -7.09375 L -24.609375 -5.734375 L -23.828125 -4.234375 L -23.765625 -4.171875 L -23.703125 -3.96875 L -23.5 -3.453125 L -23.375 -3.25 L -23.171875 -3 C -23.003906 -2.820312 -22.820312 -2.632812 -22.625 -2.4375 C -22.425781 -2.25 -22.175781 -2.046875 -21.875 -1.828125 L -20.3125 -0.453125 C -20.1875 -0.328125 -20.125 -0.285156 -20.125 -0.328125 L -20.515625 -0.90625 C -20.722656 -1.34375 -20.878906 -1.722656 -20.984375 -2.046875 C -21.097656 -2.378906 -21.132812 -2.648438 -21.09375 -2.859375 C -21.050781 -3.078125 -20.921875 -3.234375 -20.703125 -3.328125 C -20.398438 -3.492188 -20.007812 -3.445312 -19.53125 -3.1875 C -19.050781 -2.925781 -18.570312 -2.535156 -18.09375 -2.015625 C -16.84375 -0.492188 -16.109375 0.566406 -15.890625 1.171875 Z M -24.671875 -4.421875 C -24.628906 -4.421875 -24.695312 -4.617188 -24.875 -5.015625 C -24.957031 -5.234375 -25.039062 -5.40625 -25.125 -5.53125 C -25.21875 -5.664062 -25.265625 -5.753906 -25.265625 -5.796875 C -25.265625 -5.835938 -25.394531 -6.109375 -25.65625 -6.609375 C -25.914062 -7.109375 -26.066406 -7.421875 -26.109375 -7.546875 L -26.6875 -8.921875 L -27.34375 -10.15625 C -27.476562 -10.414062 -27.585938 -10.675781 -27.671875 -10.9375 C -27.710938 -11.019531 -27.785156 -11.160156 -27.890625 -11.359375 C -28.003906 -11.554688 -28.101562 -11.742188 -28.1875 -11.921875 L -28.84375 -13.015625 L -29.625 -14.453125 L -30.921875 -16.40625 C -31.535156 -17.320312 -32.054688 -17.992188 -32.484375 -18.421875 L -33.015625 -19.015625 C -33.015625 -19.054688 -33.066406 -19.109375 -33.171875 -19.171875 C -33.285156 -19.234375 -33.382812 -19.3125 -33.46875 -19.40625 L -33.859375 -19.65625 C -33.898438 -19.707031 -33.988281 -19.734375 -34.125 -19.734375 C -34.25 -19.734375 -34.3125 -19.664062 -34.3125 -19.53125 C -34.351562 -19.445312 -34.351562 -19.207031 -34.3125 -18.8125 C -34.269531 -18.425781 -34.207031 -18.1875 -34.125 -18.09375 L -33.796875 -17.125 C -33.617188 -16.601562 -33.378906 -15.992188 -33.078125 -15.296875 C -32.773438 -14.609375 -32.445312 -13.957031 -32.09375 -13.34375 C -31.664062 -12.65625 -31.15625 -11.882812 -30.5625 -11.03125 C -29.976562 -10.1875 -29.492188 -9.546875 -29.109375 -9.109375 C -28.796875 -8.804688 -28.640625 -8.632812 -28.640625 -8.59375 C -28.640625 -8.59375 -28.457031 -8.382812 -28.09375 -7.96875 C -27.726562 -7.5625 -27.304688 -7.097656 -26.828125 -6.578125 C -26.347656 -6.054688 -25.910156 -5.597656 -25.515625 -5.203125 L -24.8125 -4.5 C -24.8125 -4.445312 -24.765625 -4.421875 -24.671875 -4.421875 Z M -16.53125 0.90625 C -16.53125 0.863281 -16.691406 0.625 -17.015625 0.1875 C -17.347656 -0.238281 -17.707031 -0.691406 -18.09375 -1.171875 C -18.488281 -1.648438 -18.75 -1.929688 -18.875 -2.015625 C -18.96875 -2.054688 -19.015625 -2.054688 -19.015625 -2.015625 C -19.015625 -1.929688 -18.925781 -1.722656 -18.75 -1.390625 C -18.570312 -1.066406 -18.378906 -0.753906 -18.171875 -0.453125 C -17.953125 -0.191406 -17.625 0.117188 -17.1875 0.484375 C -16.75 0.859375 -16.53125 1 -16.53125 0.90625 Z M -16.53125 0.90625 "/></g></g></g><g fill="#000000" fill-opacity="1"><g transform="translate(146.330313, 190.610046)"><g><path d="M -17.78125 -1.4375 C -17.78125 -1.21875 -17.882812 -1.039062 -18.09375 -0.90625 C -18.3125 -0.738281 -18.550781 -0.695312 -18.8125 -0.78125 C -19.070312 -0.78125 -19.289062 -0.847656 -19.46875 -0.984375 L -19.921875 -1.171875 C -19.960938 -1.171875 -19.882812 -1.007812 -19.6875 -0.6875 C -19.5 -0.363281 -19.296875 -0.0664062 -19.078125 0.203125 C -18.898438 0.460938 -18.679688 0.835938 -18.421875 1.328125 C -18.160156 1.828125 -18.03125 2.164062 -18.03125 2.34375 C -18.03125 2.738281 -18.160156 2.9375 -18.421875 2.9375 C -18.554688 2.9375 -18.753906 2.78125 -19.015625 2.46875 C -19.359375 2.082031 -19.703125 1.609375 -20.046875 1.046875 C -20.398438 0.484375 -20.707031 -0.0351562 -20.96875 -0.515625 C -21.269531 -1.085938 -21.441406 -1.445312 -21.484375 -1.59375 C -21.523438 -1.75 -21.484375 -1.847656 -21.359375 -1.890625 C -21.265625 -1.890625 -21.21875 -2 -21.21875 -2.21875 C -21.21875 -2.601562 -21.078125 -2.707031 -20.796875 -2.53125 C -20.515625 -2.363281 -20.289062 -2.210938 -20.125 -2.078125 C -19.945312 -1.910156 -19.691406 -1.75 -19.359375 -1.59375 C -19.035156 -1.445312 -18.722656 -1.4375 -18.421875 -1.5625 C -18.296875 -1.601562 -18.265625 -1.765625 -18.328125 -2.046875 C -18.390625 -2.328125 -18.421875 -2.46875 -18.421875 -2.46875 C -18.515625 -2.90625 -18.753906 -3.597656 -19.140625 -4.546875 C -19.535156 -5.503906 -20.035156 -6.703125 -20.640625 -8.140625 L -20.703125 -8.265625 L -20.703125 -8.46875 L -20.640625 -8.53125 C -20.597656 -8.613281 -20.539062 -8.65625 -20.46875 -8.65625 C -20.40625 -8.65625 -20.351562 -8.613281 -20.3125 -8.53125 L -18.625 -4.8125 C -18.320312 -4.207031 -18.101562 -3.65625 -17.96875 -3.15625 C -17.84375 -2.65625 -17.78125 -2.40625 -17.78125 -2.40625 L -17.78125 -2.21875 C -17.726562 -1.957031 -17.726562 -1.695312 -17.78125 -1.4375 Z M -18.625 2.21875 L -18.75 1.828125 C -18.882812 1.566406 -19.082031 1.21875 -19.34375 0.78125 C -19.601562 0.34375 -19.753906 0.101562 -19.796875 0.0625 C -19.960938 -0.113281 -20.15625 -0.414062 -20.375 -0.84375 C -20.46875 -1.101562 -20.554688 -1.234375 -20.640625 -1.234375 C -20.722656 -1.234375 -20.753906 -1.191406 -20.734375 -1.109375 C -20.710938 -1.023438 -20.59375 -0.804688 -20.375 -0.453125 C -20.207031 -0.015625 -19.96875 0.414062 -19.65625 0.84375 C -19.351562 1.28125 -19.09375 1.609375 -18.875 1.828125 Z M -18.625 2.21875 "/></g></g></g><g fill="#000000" fill-opacity="1"><g transform="translate(146.330313, 182.276047)"><g><path d="M -17.515625 1.765625 C -17.335938 1.929688 -17.269531 2.125 -17.3125 2.34375 C -17.363281 2.5625 -17.519531 2.648438 -17.78125 2.609375 C -17.863281 2.566406 -18.078125 2.414062 -18.421875 2.15625 L -19.140625 1.5625 C -19.484375 1.300781 -19.9375 0.875 -20.5 0.28125 C -21.070312 -0.300781 -21.441406 -0.742188 -21.609375 -1.046875 C -21.742188 -1.265625 -21.789062 -1.457031 -21.75 -1.625 C -21.613281 -2.019531 -21.242188 -1.890625 -20.640625 -1.234375 C -20.421875 -0.972656 -20.253906 -0.800781 -20.140625 -0.71875 C -20.035156 -0.632812 -20.003906 -0.632812 -20.046875 -0.71875 L -20.3125 -1.296875 C -20.394531 -1.472656 -20.554688 -1.8125 -20.796875 -2.3125 C -21.035156 -2.8125 -21.175781 -3.082031 -21.21875 -3.125 C -21.394531 -3.519531 -21.3125 -3.738281 -20.96875 -3.78125 C -20.789062 -3.820312 -20.703125 -3.90625 -20.703125 -4.03125 C -20.703125 -4.25 -20.820312 -4.609375 -21.0625 -5.109375 C -21.300781 -5.609375 -21.507812 -6.007812 -21.6875 -6.3125 C -21.8125 -6.53125 -21.875 -6.679688 -21.875 -6.765625 C -21.875 -6.765625 -21.960938 -6.941406 -22.140625 -7.296875 C -22.484375 -7.722656 -22.523438 -8.003906 -22.265625 -8.140625 C -22.085938 -8.265625 -21.828125 -8.15625 -21.484375 -7.8125 C -21.359375 -7.632812 -21.296875 -7.460938 -21.296875 -7.296875 C -21.296875 -7.078125 -21.25 -6.878906 -21.15625 -6.703125 L -20.828125 -5.984375 L -20.3125 -4.953125 C -20.007812 -4.078125 -19.945312 -3.46875 -20.125 -3.125 C -20.25 -2.945312 -20.269531 -2.726562 -20.1875 -2.46875 L -19.796875 -1.765625 C -19.492188 -1.066406 -19.265625 -0.585938 -19.109375 -0.328125 C -18.953125 -0.0664062 -18.8125 0.128906 -18.6875 0.265625 L -18.171875 0.984375 C -18.078125 1.109375 -17.960938 1.242188 -17.828125 1.390625 C -17.703125 1.546875 -17.597656 1.671875 -17.515625 1.765625 Z M -17.515625 1.765625 "/></g></g></g><g fill="#000000" fill-opacity="1"><g transform="translate(146.330313, 172.118981)"><g><path d="M -17.703125 0.78125 C -17.660156 1.039062 -17.648438 1.203125 -17.671875 1.265625 C -17.691406 1.335938 -17.769531 1.414062 -17.90625 1.5 C -18.164062 1.675781 -18.535156 1.644531 -19.015625 1.40625 C -19.492188 1.164062 -19.773438 1 -19.859375 0.90625 L -20.96875 -0.203125 L -21.15625 -0.71875 L -21.09375 -0.84375 L -21.03125 -1.6875 C -21.03125 -1.90625 -20.941406 -2.0625 -20.765625 -2.15625 C -20.722656 -2.195312 -20.640625 -2.21875 -20.515625 -2.21875 L -19.921875 -2.21875 C -19.878906 -2.382812 -19.816406 -2.554688 -19.734375 -2.734375 C -19.597656 -3.128906 -19.53125 -3.609375 -19.53125 -4.171875 C -19.53125 -5.296875 -19.640625 -6.238281 -19.859375 -7 C -20.078125 -7.757812 -20.316406 -8.441406 -20.578125 -9.046875 C -20.703125 -9.179688 -20.679688 -9.289062 -20.515625 -9.375 C -20.378906 -9.457031 -20.269531 -9.414062 -20.1875 -9.25 L -19.921875 -8.65625 C -19.617188 -7.96875 -19.398438 -7.1875 -19.265625 -6.3125 C -19.140625 -5.445312 -19.078125 -4.773438 -19.078125 -4.296875 C -19.078125 -3.429688 -19.140625 -2.671875 -19.265625 -2.015625 L -19.203125 -1.828125 C -18.941406 -1.648438 -18.625 -1.289062 -18.25 -0.75 C -17.882812 -0.207031 -17.703125 0.300781 -17.703125 0.78125 Z M -20.25 -1.296875 C -20.207031 -1.390625 -20.226562 -1.4375 -20.3125 -1.4375 C -20.3125 -1.394531 -20.320312 -1.359375 -20.34375 -1.328125 C -20.363281 -1.304688 -20.375 -1.273438 -20.375 -1.234375 C -20.375 -1.109375 -20.332031 -1.128906 -20.25 -1.296875 Z M -18.296875 0.59375 C -18.296875 0.539062 -18.304688 0.40625 -18.328125 0.1875 C -18.347656 -0.0195312 -18.488281 -0.28125 -18.75 -0.59375 C -19.09375 -1.019531 -19.304688 -1.222656 -19.390625 -1.203125 C -19.484375 -1.179688 -19.550781 -1.148438 -19.59375 -1.109375 L -19.796875 -0.71875 L -19.984375 -0.453125 C -19.984375 -0.367188 -19.953125 -0.269531 -19.890625 -0.15625 C -19.828125 -0.0507812 -19.664062 0.109375 -19.40625 0.328125 C -19.007812 0.628906 -18.722656 0.757812 -18.546875 0.71875 C -18.378906 0.675781 -18.296875 0.632812 -18.296875 0.59375 Z M -18.296875 0.59375 "/></g></g></g><g fill="#000000" fill-opacity="1"><g transform="translate(146.330313, 163.003671)"><g><path d="M -16.734375 0.125 C -16.648438 0.78125 -17.082031 1.066406 -18.03125 0.984375 C -18.6875 0.890625 -19.554688 0.582031 -20.640625 0.0625 C -20.679688 0.0195312 -20.8125 -0.0195312 -21.03125 -0.0625 C -21.25 -0.101562 -21.378906 -0.148438 -21.421875 -0.203125 C -21.765625 -0.328125 -21.9375 -0.457031 -21.9375 -0.59375 C -21.976562 -0.675781 -22 -0.738281 -22 -0.78125 C -22 -0.820312 -22 -0.84375 -22 -0.84375 L -21.8125 -0.90625 C -21.632812 -1 -21.394531 -0.988281 -21.09375 -0.875 C -20.789062 -0.769531 -20.488281 -0.628906 -20.1875 -0.453125 C -19.75 -0.234375 -19.238281 -0.0507812 -18.65625 0.09375 C -18.070312 0.25 -17.691406 0.304688 -17.515625 0.265625 C -17.335938 0.222656 -17.554688 -0.101562 -18.171875 -0.71875 C -18.472656 -1.019531 -18.71875 -1.234375 -18.90625 -1.359375 C -19.101562 -1.492188 -19.398438 -1.648438 -19.796875 -1.828125 C -20.273438 -2.085938 -20.597656 -2.21875 -20.765625 -2.21875 C -20.859375 -2.175781 -20.925781 -2.257812 -20.96875 -2.46875 C -21.007812 -2.6875 -20.941406 -3.015625 -20.765625 -3.453125 C -20.503906 -4.054688 -20.296875 -4.671875 -20.140625 -5.296875 C -19.992188 -5.929688 -19.898438 -6.707031 -19.859375 -7.625 C -19.859375 -8.96875 -19.910156 -9.992188 -20.015625 -10.703125 C -20.128906 -11.421875 -20.207031 -11.867188 -20.25 -12.046875 C -20.332031 -12.390625 -20.40625 -12.59375 -20.46875 -12.65625 C -20.539062 -12.726562 -20.488281 -12.828125 -20.3125 -12.953125 C -20.132812 -12.953125 -19.941406 -12.5625 -19.734375 -11.78125 L -19.59375 -11.0625 C -19.59375 -10.9375 -19.5625 -10.632812 -19.5 -10.15625 C -19.4375 -9.675781 -19.40625 -9.328125 -19.40625 -9.109375 L -19.40625 -7.875 C -19.40625 -7.132812 -19.46875 -6.398438 -19.59375 -5.671875 L -19.734375 -4.75 L -19.984375 -3.640625 C -19.984375 -3.554688 -20.015625 -3.484375 -20.078125 -3.421875 C -20.148438 -3.359375 -20.164062 -3.257812 -20.125 -3.125 C -20.125 -2.820312 -20.015625 -2.628906 -19.796875 -2.546875 C -19.492188 -2.410156 -19.132812 -2.191406 -18.71875 -1.890625 C -18.300781 -1.585938 -18.050781 -1.390625 -17.96875 -1.296875 C -17.664062 -1.128906 -17.382812 -0.878906 -17.125 -0.546875 C -16.863281 -0.222656 -16.734375 0 -16.734375 0.125 Z M -16.734375 0.125 "/></g></g></g><g fill="#000000" fill-opacity="1"><g transform="translate(146.330313, 150.046911)"><g><path d="M -17.78125 -1.4375 C -17.78125 -1.21875 -17.882812 -1.039062 -18.09375 -0.90625 C -18.3125 -0.738281 -18.550781 -0.695312 -18.8125 -0.78125 C -19.070312 -0.78125 -19.289062 -0.847656 -19.46875 -0.984375 L -19.921875 -1.171875 C -19.960938 -1.171875 -19.882812 -1.007812 -19.6875 -0.6875 C -19.5 -0.363281 -19.296875 -0.0664062 -19.078125 0.203125 C -18.898438 0.460938 -18.679688 0.835938 -18.421875 1.328125 C -18.160156 1.828125 -18.03125 2.164062 -18.03125 2.34375 C -18.03125 2.738281 -18.160156 2.9375 -18.421875 2.9375 C -18.554688 2.9375 -18.753906 2.78125 -19.015625 2.46875 C -19.359375 2.082031 -19.703125 1.609375 -20.046875 1.046875 C -20.398438 0.484375 -20.707031 -0.0351562 -20.96875 -0.515625 C -21.269531 -1.085938 -21.441406 -1.445312 -21.484375 -1.59375 C -21.523438 -1.75 -21.484375 -1.847656 -21.359375 -1.890625 C -21.265625 -1.890625 -21.21875 -2 -21.21875 -2.21875 C -21.21875 -2.601562 -21.078125 -2.707031 -20.796875 -2.53125 C -20.515625 -2.363281 -20.289062 -2.210938 -20.125 -2.078125 C -19.945312 -1.910156 -19.691406 -1.75 -19.359375 -1.59375 C -19.035156 -1.445312 -18.722656 -1.4375 -18.421875 -1.5625 C -18.296875 -1.601562 -18.265625 -1.765625 -18.328125 -2.046875 C -18.390625 -2.328125 -18.421875 -2.46875 -18.421875 -2.46875 C -18.515625 -2.90625 -18.753906 -3.597656 -19.140625 -4.546875 C -19.535156 -5.503906 -20.035156 -6.703125 -20.640625 -8.140625 L -20.703125 -8.265625 L -20.703125 -8.46875 L -20.640625 -8.53125 C -20.597656 -8.613281 -20.539062 -8.65625 -20.46875 -8.65625 C -20.40625 -8.65625 -20.351562 -8.613281 -20.3125 -8.53125 L -18.625 -4.8125 C -18.320312 -4.207031 -18.101562 -3.65625 -17.96875 -3.15625 C -17.84375 -2.65625 -17.78125 -2.40625 -17.78125 -2.40625 L -17.78125 -2.21875 C -17.726562 -1.957031 -17.726562 -1.695312 -17.78125 -1.4375 Z M -18.625 2.21875 L -18.75 1.828125 C -18.882812 1.566406 -19.082031 1.21875 -19.34375 0.78125 C -19.601562 0.34375 -19.753906 0.101562 -19.796875 0.0625 C -19.960938 -0.113281 -20.15625 -0.414062 -20.375 -0.84375 C -20.46875 -1.101562 -20.554688 -1.234375 -20.640625 -1.234375 C -20.722656 -1.234375 -20.753906 -1.191406 -20.734375 -1.109375 C -20.710938 -1.023438 -20.59375 -0.804688 -20.375 -0.453125 C -20.207031 -0.015625 -19.96875 0.414062 -19.65625 0.84375 C -19.351562 1.28125 -19.09375 1.609375 -18.875 1.828125 Z M -18.625 2.21875 "/></g></g></g></svg>